<?xml version="1.0" standalone="no"?>
<!DOCTYPE svg PUBLIC "-//W3C//DTD SVG 1.1//EN" "http://www.w3.org/Graphics/SVG/1.1/DTD/svg11.dtd" >
<svg xmlns="http://www.w3.org/2000/svg" xmlns:xlink="http://www.w3.org/1999/xlink" version="1.1">
<metadata>
Created by FontForge 20170731 at Sun May 17 20:09:44 2020
 By Aleksey,,,
SIL OPEN FONT LICENCE
</metadata>
<defs>
<font id="Paysage-Black" horiz-adv-x="0" >
  <font-face 
    font-family="Paysage Black"
    font-weight="900"
    font-stretch="normal"
    units-per-em="1000"
    panose-1="0 0 10 0 0 0 0 0 0 0"
    ascent="800"
    descent="-200"
    x-height="460"
    cap-height="640"
    bbox="-695 -348 1069 925"
    underline-thickness="50"
    underline-position="-150"
    unicode-range="U+0020-2260"
  />
<missing-glyph horiz-adv-x="818" 
d="M684 -43h-550v758h459v56h-515v-870h662v678l-56 -40v-582zM567.5 473.5q0.5 -3.5 2.5 -4.5q26 -11 36.5 -35t13.5 -58l1 -16q0 -53 -33 -126q-31 -66 -88 -105t-108 -39q-15 0 -30.5 3t-23.5 9q-4 2 -6 2q-5 0 -8 -5l-52 -71l-48 -44l-3 1l23 64l45 82q3 4 -2 9
q-43 46 -43 119q0 60 29 121.5t75.5 101t95.5 39.5q29 0 58 -17q-25 -19 -25 -40q0 -12 9 -32l2 -1l169 267l69 67l4 -3l-29 -92l-132 -190q-2 -3 -1.5 -6.5zM388 560l-21 -5l-43 101l54 9zM334 521l-19 -9l-100 125l51 25zM279 489l-14 -14l-92 56l35 38zM412 440
q12 15 12 20q-1 10 -14 10q-18 -2 -41.5 -23.5t-43.5 -58.5q-17 -31 -25.5 -64.5t-8.5 -60.5q0 -19 4 -32.5t12 -13.5q3 0 6 9.5t6 23.5q8 35 16.5 61.5t23.5 53.5q23 43 53 75z" />
    <glyph glyph-name=".notdef" horiz-adv-x="818" 
d="M684 -43h-550v758h459v56h-515v-870h662v678l-56 -40v-582zM567.5 473.5q0.5 -3.5 2.5 -4.5q26 -11 36.5 -35t13.5 -58l1 -16q0 -53 -33 -126q-31 -66 -88 -105t-108 -39q-15 0 -30.5 3t-23.5 9q-4 2 -6 2q-5 0 -8 -5l-52 -71l-48 -44l-3 1l23 64l45 82q3 4 -2 9
q-43 46 -43 119q0 60 29 121.5t75.5 101t95.5 39.5q29 0 58 -17q-25 -19 -25 -40q0 -12 9 -32l2 -1l169 267l69 67l4 -3l-29 -92l-132 -190q-2 -3 -1.5 -6.5zM388 560l-21 -5l-43 101l54 9zM334 521l-19 -9l-100 125l51 25zM279 489l-14 -14l-92 56l35 38zM412 440
q12 15 12 20q-1 10 -14 10q-18 -2 -41.5 -23.5t-43.5 -58.5q-17 -31 -25.5 -64.5t-8.5 -60.5q0 -19 4 -32.5t12 -13.5q3 0 6 9.5t6 23.5q8 35 16.5 61.5t23.5 53.5q23 43 53 75z" />
    <glyph glyph-name=".null" 
 />
    <glyph glyph-name="nonmarkingreturn" horiz-adv-x="333" 
 />
    <glyph glyph-name="space" unicode=" " horiz-adv-x="160" 
 />
    <glyph glyph-name="exclam" unicode="!" horiz-adv-x="306" 
d="M248 640l-51 -423h-90l-49 423h190zM236 160v-160h-168v160h168z" />
    <glyph glyph-name="quotedbl" unicode="&#x22;" horiz-adv-x="508" 
d="M196 402h-114l-32 238h178zM426 402h-114l-32 238h178z" />
    <glyph glyph-name="numbersign" unicode="#" horiz-adv-x="672" 
d="M642 263v-121h-93l14 -142h-140l-14 141h-108l15 -141h-139l-14 140h-112v119l99 1l-12 119h-107v121h94l-14 140h139l14 -140l109 1l-14 139h140l14 -139h109v-120h-97l12 -119zM289 261h108l-12 119h-108z" />
    <glyph glyph-name="dollar" unicode="$" horiz-adv-x="484" 
d="M445 289q29 -42 29 -92q0 -46 -26 -83.5t-72.5 -59t-104.5 -21.5h-4v-63h-57v65q-63 4 -103 16.5t-76 33.5v132q32 -16 78.5 -29.5t90.5 -18.5v93l-36 12q-69 23 -106.5 72.5t-37.5 104.5q0 77 54.5 116t145.5 40v72h57v-74q81 -7 165 -29v-135q-32 9 -75 16t-80 10v-90
l47 -17q82 -29 111 -71zM196 415.5q11 -10.5 34 -18.5v73q-45 -3 -45 -29q0 -15 11 -25.5zM313 199q0 14 -12 23.5t-44 20.5v-77q56 5 56 33z" />
    <glyph glyph-name="percent" unicode="%" horiz-adv-x="953" 
d="M128 329q-43 24 -67 65t-24 91q0 81 51.5 125.5t135.5 44.5t135 -44.5t51 -125.5q0 -50 -23 -91t-65.5 -65t-97.5 -24q-53 0 -96 24zM182 1h168l422 638h-165zM258.5 428.5q7.5 21.5 7.5 64.5q0 34 -7 47.5t-35 13.5q-27 0 -35 -14.5t-8 -49.5q0 -40 8.5 -61.5
t34.5 -21.5q27 0 34.5 21.5zM643 9q-43 24 -67 65t-24 91q0 81 51.5 125.5t135.5 44.5t135 -44.5t51 -125.5q0 -79 -49 -129.5t-137 -50.5q-53 0 -96 24zM773.5 107.5q7.5 21.5 7.5 65.5q0 34 -7 47t-35 13q-27 0 -35 -14.5t-8 -48.5q0 -40 8.5 -62t34.5 -22q27 0 34.5 21.5
z" />
    <glyph glyph-name="ampersand" unicode="&#x26;" horiz-adv-x="664" 
d="M464 0l-36 49q-67 -59 -169 -59q-75 0 -127.5 26.5t-78.5 69.5t-26 92q0 67 40.5 116.5t123.5 83.5l-116 160v102h510v-133h-303l175 -245q4 27 4 62q0 50 -7 99h170q0 -61 -27 -139t-63 -128l111 -156h-181zM333.5 130q13.5 3 28.5 12l-102 140q-26 -12 -40.5 -32.5
t-14.5 -42.5q0 -35 25 -57.5t70 -22.5q20 0 33.5 3z" />
    <glyph glyph-name="quotesingle" unicode="'" horiz-adv-x="278" 
d="M196 402h-114l-32 238h178z" />
    <glyph glyph-name="parenleft" unicode="(" horiz-adv-x="369" 
d="M241 558.5q-36 -114.5 -36 -252.5q0 -139 36.5 -258.5t90.5 -173.5h-158q-43 41 -76 113t-50.5 157t-17.5 162q0 119 39.5 240t104.5 182h158q-55 -55 -91 -169.5z" />
    <glyph glyph-name="parenright" unicode=")" horiz-adv-x="369" 
d="M195 728q65 -61 104.5 -182t39.5 -240q0 -77 -17.5 -162t-50.5 -157t-76 -113h-158q54 54 90.5 173.5t36.5 258.5q0 138 -36 252.5t-91 169.5h158z" />
    <glyph glyph-name="asterisk" unicode="*" horiz-adv-x="365" 
d="M32 561l45 80l63 -46l-2 79h94l-10 -77l67 40l46 -80l-71 -30l69 -38l-45 -80l-63 46l2 -79h-94l10 77l-67 -40l-46 80l71 30z" />
    <glyph glyph-name="plus" unicode="+" horiz-adv-x="581" 
d="M501 381v-130h-145v-146h-130v146h-146v130h146v145h130v-145h145z" />
    <glyph glyph-name="comma" unicode="," horiz-adv-x="299" 
d="M56 153h165q12 -52 12 -102q0 -103 -62 -199l-115 41q25 31 39 55t20 52h-59v153z" />
    <glyph glyph-name="hyphen" unicode="-" horiz-adv-x="451" 
d="M70 357h311v-130h-311v130z" />
    <glyph glyph-name="period" unicode="." horiz-adv-x="300" 
d="M66 160h168v-160h-168v160z" />
    <glyph glyph-name="slash" unicode="/" horiz-adv-x="436" 
d="M407 670l-181 -730h-197l183 730h195z" />
    <glyph glyph-name="zero" unicode="0" horiz-adv-x="626" 
d="M160.5 38.5q-61.5 48.5 -91 127.5t-29.5 173q0 152 64 231.5t210 79.5q145 0 208.5 -79.5t63.5 -231.5q0 -94 -29 -173t-90 -127.5t-153 -48.5t-153.5 48.5zM244.5 475.5q-18.5 -41.5 -18.5 -132.5q0 -114 20 -166.5t68 -52.5q49 0 68 56.5t19 181.5q0 80 -19.5 117.5
t-67.5 37.5q-51 0 -69.5 -41.5z" />
    <glyph glyph-name="one" unicode="1" horiz-adv-x="531" 
d="M501 133v-133h-471v133h157v316l-146 -30v126q66 17 102.5 35t97.5 60h121v-507h139z" />
    <glyph glyph-name="two" unicode="2" horiz-adv-x="527" 
d="M122.5 494.5q38.5 14.5 81.5 14.5t65 -26.5t22 -55.5q0 -46 -21.5 -84t-80.5 -97l-139 -139v-107h437v133h-208l90 92q111 114 111 228q0 49 -25 94t-79.5 74t-138.5 29q-64 0 -104 -12t-93 -37v-146q44 25 82.5 39.5z" />
    <glyph glyph-name="three" unicode="3" horiz-adv-x="550" 
d="M479 299.5q41 -30.5 41 -103.5q0 -62 -32 -108.5t-91 -72t-138 -25.5q-143 0 -215 44v134q32 -16 80.5 -29.5t86.5 -13.5q60 0 89.5 14.5t29.5 56.5q0 24 -10 36t-36 16.5t-78 4.5h-90l-13 118l83 10q64 8 87.5 25t23.5 48q0 27 -20 40t-62 13q-45 0 -96.5 -15t-78.5 -34
v141q36 24 96.5 37.5t116.5 13.5q60 0 114.5 -20t89 -60t34.5 -97q0 -41 -30 -78.5t-85 -54.5q62 -10 103 -40.5z" />
    <glyph glyph-name="four" unicode="4" horiz-adv-x="560" 
d="M19 99v124l260 417h186v-405h87v-136h-87v-99h-175v99h-271zM171 233h119v34l6 208h-4z" />
    <glyph glyph-name="five" unicode="5" horiz-adv-x="555" 
d="M485.5 352.5q39.5 -61.5 39.5 -144.5q0 -109 -70.5 -163.5t-184.5 -54.5q-119 0 -206 52v136q48 -26 84.5 -38.5t95.5 -12.5q57 0 81.5 17t24.5 61q0 45 -14 68t-60 23q-66 0 -137 -45l-81 31v357h430v-133h-260v-33l-1 -87q49 28 121 28q98 0 137.5 -61.5z" />
    <glyph glyph-name="six" unicode="6" horiz-adv-x="564" 
d="M477.5 356.5q56.5 -54.5 56.5 -151.5q0 -95 -59.5 -155.5t-178.5 -60.5q-127 0 -196.5 83t-69.5 225q0 168 73.5 260t212.5 92q40 0 86.5 -9.5t83.5 -27.5v-130q-72 31 -145 31q-71 0 -102 -31.5t-36 -108.5q59 38 123 38q95 0 151.5 -54.5zM345.5 146q13.5 24 13.5 70
q0 50 -18.5 71.5t-51.5 21.5q-53 0 -86 -25q4 -88 25.5 -125t67.5 -37q36 0 49.5 24z" />
    <glyph glyph-name="seven" unicode="7" horiz-adv-x="533" 
d="M37 640v-133h269l-235 -507h185l249 538v102h-468z" />
    <glyph glyph-name="eight" unicode="8" horiz-adv-x="582" 
d="M117 607q61 42 174 42q120 0 183.5 -42.5t63.5 -124.5q0 -51 -27 -87.5t-75 -54.5q57 -24 86.5 -63.5t29.5 -90.5q0 -55 -30.5 -99.5t-89 -70.5t-140.5 -26q-122 0 -192 49.5t-70 134.5q0 59 29.5 94.5t80.5 58.5q-39 27 -61.5 67t-22.5 90q0 81 61 123zM243.5 428
q14.5 -18 41.5 -26l36 -10q43 36 43 81q0 30 -18 45.5t-53 15.5q-31 0 -47.5 -16t-16.5 -45q0 -27 14.5 -45zM304 244l-76 26q-34 -25 -34 -75q0 -42 28.5 -65t75.5 -23t65.5 17.5t18.5 54.5q0 39 -78 65z" />
    <glyph glyph-name="nine" unicode="9" horiz-adv-x="564" 
d="M464.5 567q69.5 -83 69.5 -225q0 -168 -73.5 -260t-212.5 -92q-40 0 -86.5 9.5t-83.5 27.5v130q72 -31 145 -31q71 0 102 31.5t36 108.5q-59 -38 -123 -38q-95 0 -151.5 54.5t-56.5 151.5q0 95 59.5 155.5t178.5 60.5q127 0 196.5 -83zM223.5 351.5
q18.5 -21.5 51.5 -21.5q53 0 86 25q-4 88 -25.5 125t-67.5 37q-36 0 -49.5 -24t-13.5 -70q0 -50 18.5 -71.5z" />
    <glyph glyph-name="colon" unicode=":" horiz-adv-x="300" 
d="M66 459h168v-160h-168v160zM66 160h168v-160h-168v160z" />
    <glyph glyph-name="semicolon" unicode=";" horiz-adv-x="312" 
d="M73 460h168v-160h-168v160zM73 160h166q7 -49 7 -101q0 -148 -70 -244l-110 63q48 59 61 122h-54v160z" />
    <glyph glyph-name="less" unicode="&#x3c;" horiz-adv-x="438" 
d="M262 55l-242 239l240 240l108 -96l-160 -143l159 -139z" />
    <glyph glyph-name="equal" unicode="=" horiz-adv-x="615" 
d="M80 486v-130h455v130h-455zM80 251v-130h455v130h-455z" />
    <glyph glyph-name="greater" unicode="&#x3e;" horiz-adv-x="438" 
d="M71 156l159 139l-160 143l108 96l240 -240l-242 -239z" />
    <glyph glyph-name="question" unicode="?" horiz-adv-x="534" 
d="M482 390.5q-30 -43.5 -79 -71.5t-104 -35l-17 -67h-90l-35 125q14 8 26 14.5t21 11.5q45 24 63 39t18 41q0 23 -21 38.5t-62 15.5q-34 0 -72.5 -11.5t-67.5 -30.5v148q73 42 200 42q107 0 178.5 -41.5t71.5 -125.5q0 -49 -30 -92.5zM322 160v-160h-168v160h168z" />
    <glyph glyph-name="at" unicode="@" horiz-adv-x="925" 
d="M699 612.5q96 -42.5 146 -116.5t50 -168q0 -76 -28 -143.5t-79 -108.5t-117 -41q-63 0 -111 41.5t-59 104.5q-17 -48 -59.5 -84t-97.5 -36q-71 0 -104.5 49t-33.5 126q0 66 23 120.5t66 87t98 32.5q93 0 147 -106l43 90h135l-60 -295q-3 -15 -3 -26q0 -41 42 -41
q36 0 67.5 31.5t49.5 83t18 107.5q0 86 -48 147t-130 92.5t-184 31.5q-110 0 -195 -40t-133 -116t-48 -180q0 -99 41 -168t115.5 -104t174.5 -35q50 0 105.5 12.5t82.5 29.5v-66q-25 -16 -76 -28t-115 -12q-115 0 -204.5 46.5t-138.5 130t-49 190.5q0 116 54 208t154 144
t232 52q133 0 229 -42.5zM520 302q0 21 -13.5 32.5t-37.5 11.5q-48 0 -68 -22.5t-26 -63.5q-1 -5 -1 -14q0 -22 12 -36.5t35 -14.5q39 0 65.5 28t32.5 68q1 4 1 11z" />
    <glyph glyph-name="A" unicode="A" horiz-adv-x="626" 
d="M434 0l-29 103h-183l-29 -103h-174l197 640h197l193 -640h-172zM256 226h115l-17 63l-37 151h-9l-35 -151z" />
    <glyph glyph-name="B" unicode="B" horiz-adv-x="627" 
d="M559.5 273.5q37.5 -37.5 37.5 -97.5q0 -49 -24.5 -89t-73 -63.5t-117.5 -23.5h-324v640h303q104 0 155 -45t51 -117q0 -55 -29 -96.5t-90 -58.5q74 -12 111.5 -49.5zM233 509v-135h58q44 0 65 6t29 20.5t8 43.5q0 28 -10 42t-32 18.5t-65 4.5h-53zM398.5 146
q24.5 13 24.5 49q0 28 -8.5 42.5t-34.5 22t-80 7.5h-67v-134h86q55 0 79.5 13z" />
    <glyph glyph-name="C" unicode="C" horiz-adv-x="586" 
d="M260.5 179.5q44.5 -46.5 128.5 -46.5q47 0 84.5 17t63.5 42v-123q-32 -41 -79.5 -60t-127.5 -19q-77 0 -146 42.5t-111.5 121.5t-42.5 184q0 149 83 230.5t237 81.5q52 0 108.5 -14.5t88.5 -34.5v-143q-53 27 -94 37.5t-86 10.5q-77 0 -114 -43.5t-37 -143.5
q0 -93 44.5 -139.5z" />
    <glyph glyph-name="D" unicode="D" horiz-adv-x="665" 
d="M327 640q174 0 241 -84t67 -218q0 -96 -38 -172.5t-114 -121t-185 -44.5h-240v640h269zM415.5 190q45.5 57 45.5 142q0 93 -44.5 134t-130.5 41h-53v-374h47q90 0 135.5 57z" />
    <glyph glyph-name="E" unicode="E" horiz-adv-x="550" 
d="M233 133v135h243v122h-243v117h283v133h-458v-640h458v133h-283z" />
    <glyph glyph-name="F" unicode="F" horiz-adv-x="521" 
d="M58 641h448l1 -133h-274v-144h233v-122h-233v-242h-175v641z" />
    <glyph glyph-name="G" unicode="G" horiz-adv-x="676" 
d="M627 0h-139l-12 101q-18 -49 -64 -80t-108 -31q-70 0 -133 41.5t-102 120t-39 184.5q0 153 84.5 233.5t251.5 80.5q62 0 133 -15t101 -36v-146q-48 26 -102 40t-101 14q-97 0 -139.5 -42t-42.5 -142q0 -102 34.5 -145t83.5 -43q63 0 91 40.5t28 91.5h-118v102h293v-369z
" />
    <glyph glyph-name="H" unicode="H" horiz-adv-x="680" 
d="M622 640h-175v-248h-214v248h-175v-640h175v258h214v-258h175v640z" />
    <glyph glyph-name="I" unicode="I" horiz-adv-x="291" 
d="M233 640h-175v-640h175v640z" />
    <glyph glyph-name="J" unicode="J" horiz-adv-x="383" 
d="M335 154q0 -50 -25 -88.5t-65.5 -59.5t-85.5 -21q-77 0 -144 21v137q9 -3 30 -6t42 -3q74 0 74 66v440h174v-486z" />
    <glyph glyph-name="K" unicode="K" horiz-adv-x="641" 
d="M641 640l-228 -315l228 -325h-210l-198 310v-310h-175v640h175v-310l208 310h200z" />
    <glyph glyph-name="L" unicode="L" horiz-adv-x="480" 
d="M461 0h-403v640h175v-507h228v-133z" />
    <glyph glyph-name="M" unicode="M" horiz-adv-x="803" 
d="M245 640l95 -170l60 -121h4l61 121l94 170h186v-640h-175v77l24 322h-5l-142 -308h-91l-142 308h-5l24 -322v-77h-175v640h187z" />
    <glyph glyph-name="N" unicode="N" horiz-adv-x="689" 
d="M631 640v-640h-187l-221 386h-10l20 -262v-124h-175v640h187l223 -386h11l-23 262l1 124h174z" />
    <glyph glyph-name="O" unicode="O" horiz-adv-x="687" 
d="M68.5 156.5q38.5 -78.5 109.5 -122.5t165 -44t165.5 46t110 127.5t38.5 185.5q0 99 -40 166.5t-111 101t-163 33.5q-149 0 -231 -79t-82 -236q0 -100 38.5 -178.5zM225 430.5q10 36.5 38 56t80 19.5q76 0 103 -42t27 -132q0 -96 -34 -146.5t-96 -50.5q-57 0 -92.5 52
t-35.5 148q0 59 10 95.5z" />
    <glyph glyph-name="P" unicode="P" horiz-adv-x="598" 
d="M58 640h297q103 0 163 -49.5t60 -149.5q0 -134 -72 -196.5t-231 -62.5h-42v-182h-175v640zM385 484q-18 23 -60 23h-92v-203h56q57 0 85.5 27.5t28.5 74.5q0 55 -18 78z" />
    <glyph glyph-name="Q" unicode="Q" horiz-adv-x="665" 
d="M655 -10h-328q-88 0 -155.5 45t-104.5 123.5t-37 176.5q0 154 79.5 234.5t222.5 80.5q88 0 156.5 -34t107.5 -101.5t39 -164.5q0 -154 -126 -218v-17l146 10v-135zM248 182q32 -58 84 -58q56 0 86.5 56.5t30.5 157.5q0 93 -24 136t-93 43q-47 0 -72.5 -20t-34.5 -58
t-9 -99q0 -100 32 -158z" />
    <glyph glyph-name="R" unicode="R" horiz-adv-x="641" 
d="M621 0h-211l-160 241h-17v-241h-175v641h334q102 0 154.5 -48t52.5 -130q0 -80 -43 -136.5t-114 -69.5zM310 345q61 0 86 20.5t25 72.5q0 37 -20 54t-64 17h-104v-159q50 -5 77 -5z" />
    <glyph glyph-name="S" unicode="S" horiz-adv-x="529" 
d="M313.5 144q23.5 13 23.5 39q0 22 -15.5 35t-56.5 30l-85 35q-78 32 -119 75t-41 108q0 92 66 138t178 46q61 0 110.5 -9.5t104.5 -26.5v-147q-49 18 -106 27t-104 9q-77 0 -77 -42q0 -16 15 -28t48 -26l132 -54q59 -24 90.5 -65.5t31.5 -108.5q0 -57 -32 -100t-86 -66
t-119 -23q-148 0 -241 60l-1 142q41 -26 105.5 -43.5t116.5 -17.5q38 0 61.5 13z" />
    <glyph glyph-name="T" unicode="T" horiz-adv-x="549" 
d="M511 640v-133h-154v-507h-174v507h-154v133h482z" />
    <glyph glyph-name="U" unicode="U" horiz-adv-x="650" 
d="M402.5 158q-23.5 -24 -77.5 -24t-77.5 24t-23.5 91l-1 392h-175l1 -399q0 -118 73.5 -185t202.5 -67t202.5 67t73.5 185l1 399h-175l-1 -392q0 -67 -23.5 -91z" />
    <glyph glyph-name="V" unicode="V" horiz-adv-x="621" 
d="M613 640h-172l-86 -278l-36 -151h-7l-36 151l-95 278h-173l217 -640h185z" />
    <glyph glyph-name="W" unicode="W" horiz-adv-x="876" 
d="M198 640l34 -241l25 -145h17l46 160l62 227h112l62 -227l46 -171h17l25 156l34 241h190l-151 -640h-185l-52 182l-34 137h-16l-34 -137l-52 -182h-185l-151 640h190z" />
    <glyph glyph-name="X" unicode="X" horiz-adv-x="602" 
d="M602 0h-193l-110 183l-103 -182h-189l193 324l-200 315h193l109 -200l114 200h184l-199 -323z" />
    <glyph glyph-name="Y" unicode="Y" horiz-adv-x="623" 
d="M351 488l70 152h193l-215 -431v-209h-175v209l-215 431h193l70 -152l34 -97h11z" />
    <glyph glyph-name="Z" unicode="Z" horiz-adv-x="540" 
d="M499 133v-133h-450v102l242 405h-252v133h462v-102l-244 -405h242z" />
    <glyph glyph-name="bracketleft" unicode="[" horiz-adv-x="402" 
d="M332 0v-120h-277v850h277v-120h-107v-610h107z" />
    <glyph glyph-name="backslash" unicode="\" horiz-adv-x="436" 
d="M224 670l183 -730h-197l-181 730h195z" />
    <glyph glyph-name="bracketright" unicode="]" horiz-adv-x="402" 
d="M177 0v610h-107v120h277v-850h-277v120h107z" />
    <glyph glyph-name="asciicircum" unicode="^" horiz-adv-x="445" 
d="M310.5 519q56.5 -19 104.5 -29l-21 -116q-27 0 -84.5 15t-85.5 33h-3q-28 -18 -85.5 -33t-84.5 -15l-21 116q49 10 105 29t86 36h3q30 -17 86.5 -36z" />
    <glyph glyph-name="underscore" unicode="_" horiz-adv-x="630" 
d="M70 50v-110h490v110h-490z" />
    <glyph glyph-name="a" unicode="a" horiz-adv-x="522" 
d="M421 417.5q61 -52.5 61 -143.5l-12 -274h-140l-18 77q-34 -43 -68.5 -65t-79.5 -22q-41 0 -71.5 19t-46.5 49t-16 62q0 57 46 93.5t123 52.5l113 24q-8 49 -95 49q-46 0 -93.5 -17t-76.5 -40v144q55 25 104 34.5t108 9.5q101 0 162 -52.5zM293.5 125.5
q20.5 23.5 20.5 67.5v13l-66 -15q-53 -13 -53 -44q0 -21 11.5 -33t30.5 -12q36 0 56.5 23.5z" />
    <glyph glyph-name="b" unicode="b" horiz-adv-x="580" 
d="M458.5 446.5q40.5 -23.5 66 -75t25.5 -130.5q0 -69 -23.5 -126t-70 -91t-112.5 -34q-47 0 -82 22t-57 54l-20 -66h-135v680h170v-279q55 69 149 69q49 0 89.5 -23.5zM360 150q20 25 20 92q0 37 -16 65.5t-57 28.5q-46 0 -66.5 -26.5t-20.5 -77.5q0 -55 16.5 -81t63.5 -26
q40 0 60 25z" />
    <glyph glyph-name="c" unicode="c" horiz-adv-x="466" 
d="M303 341q-56 0 -79.5 -24t-23.5 -79q0 -60 31.5 -90t81.5 -30q31 0 66 8.5t56 26.5l-2 -119q-36 -23 -73.5 -33.5t-98.5 -10.5q-62 0 -115 31t-84.5 88t-31.5 132q0 229 237 229q91 0 174 -29v-138q-64 38 -138 38z" />
    <glyph glyph-name="d" unicode="d" horiz-adv-x="580" 
d="M530 680v-680h-135l-20 66q-22 -32 -57 -54t-82 -22q-66 0 -112.5 34t-70 91t-23.5 126q0 79 25.5 130.5t66 75t89.5 23.5q94 0 149 -69v279h170zM343.5 151q16.5 26 16.5 81q0 51 -20.5 77.5t-66.5 26.5q-41 0 -57 -28.5t-16 -65.5q0 -67 20 -92t60 -25q47 0 63.5 26z
" />
    <glyph glyph-name="e" unicode="e" horiz-adv-x="502" 
d="M421 416.5q56 -53.5 56 -146.5q0 -34 -9 -75h-268q10 -41 40.5 -59.5t83.5 -18.5q37 0 71 11t59 26l-3 -125q-23 -15 -68.5 -27t-97.5 -12q-120 0 -187.5 67t-67.5 181q0 232 240 232q95 0 151 -53.5zM313 280q0 31 -13.5 46.5t-42.5 15.5q-27 0 -41 -13t-19 -49h116z
" />
    <glyph glyph-name="f" unicode="f" horiz-adv-x="459" 
d="M334 511q-28 0 -39.5 -9.5t-11.5 -34.5v-41h133v-120h-129l1 -306h-171v306h-82v119h78v49q0 170 166 170q32 0 59 -3.5t81 -14.5v-127q-36 12 -85 12z" />
    <glyph glyph-name="g" unicode="g" horiz-adv-x="595" 
d="M575 360l-123 -21q35 -8 56 -33t21 -64q0 -63 -49.5 -103t-139.5 -51q-17 -25 -40 -44q29 4 68 4q193 0 193 -106q0 -32 -29 -59.5t-91 -44.5t-156 -17q-90 0 -152.5 17t-97.5 40v109q52 -25 107 -37t143 -12q32 0 63.5 7.5t31.5 21.5q0 11 -19 17t-72 6q-30 0 -69 -5.5
t-66 -13.5l-17 56q67 23 107 60q-93 9 -148.5 58t-55.5 134q0 97 77 139t192 42h266v-100zM233 214.5q17 -23.5 52 -23.5q34 0 51 24t17 57q0 26 -16 42.5t-52 16.5q-37 0 -53 -16.5t-16 -42.5q0 -34 17 -57.5z" />
    <glyph glyph-name="h" unicode="h" horiz-adv-x="585" 
d="M502.5 428q42.5 -42 42.5 -125v-303h-170v250q0 33 -15.5 49t-51.5 16q-35 0 -56.5 -18t-25.5 -52q-1 -5 -1 -16v-229h-170v680h170v-313q26 54 64 78.5t100 24.5q71 0 113.5 -42z" />
    <glyph glyph-name="i" unicode="i" horiz-adv-x="270" 
d="M47 615h180v-115h-180v115zM222 460h-170v-460h170v460z" />
    <glyph glyph-name="j" unicode="j" horiz-adv-x="289" 
d="M66 615h180v-115h-180v115zM240 460v-468q0 -70 -43.5 -116t-123.5 -46q-39 0 -63 8t-52 24v108q4 -1 14.5 -5.5t24 -6.5t29.5 -2q19 0 31.5 13t12.5 40v451h170z" />
    <glyph glyph-name="k" unicode="k" horiz-adv-x="556" 
d="M396 242l160 -242h-201l-134 214h-1v-214h-170v680h170v-406l131 186h202z" />
    <glyph glyph-name="l" unicode="l" horiz-adv-x="271" 
d="M50 680h170l1 -680h-170z" />
    <glyph glyph-name="m" unicode="m" horiz-adv-x="880" 
d="M802.5 422.5q37.5 -47.5 37.5 -145.5v-277h-170v238q0 44 -17 57.5t-45 13.5q-33 0 -56 -19t-23 -42v-248h-170v241q0 43 -15.5 55.5t-45.5 12.5q-34 0 -56 -18.5t-22 -46.5v-244h-170v460h150l13 -107q24 59 61 88t103 29q124 0 140 -122q15 52 63 87t108 35
q77 0 114.5 -47.5z" />
    <glyph glyph-name="n" unicode="n" horiz-adv-x="580" 
d="M220 224q0 41 22 63.5t61 22.5q36 0 51.5 -16t15.5 -49v-245h170v298q0 84 -42.5 128t-113.5 44q-67 0 -106 -28.5t-67 -94.5l-11 113h-150v-460h170v224z" />
    <glyph glyph-name="o" unicode="o" horiz-adv-x="564" 
d="M87 415q-57 -60 -57 -174q0 -65 24 -123t80.5 -95.5t147.5 -37.5t147.5 37.5t80.5 95.5t24 123q0 114 -57 174t-195 60t-195 -60zM220 150q-20 35 -20 90q0 39 6 61t23.5 33t52.5 11t52.5 -11t23.5 -32.5t6 -60.5q0 -55 -20 -90.5t-62 -35.5t-62 35z" />
    <glyph glyph-name="p" unicode="p" horiz-adv-x="601" 
d="M523 414.5q48 -55.5 48 -173.5q0 -108 -50 -179.5t-146 -71.5q-51 0 -92 26t-63 61v-237h-170v620h150l19 -93q27 48 74 75.5t107 27.5q75 0 123 -55.5zM371.5 147.5q19.5 26.5 19.5 94.5q0 45 -19.5 71.5t-60.5 26.5q-40 0 -62.5 -24t-26.5 -66l-1 -30q4 -39 25.5 -69
t67.5 -30q38 0 57.5 26.5z" />
    <glyph glyph-name="q" unicode="q" horiz-adv-x="601" 
d="M551 460v-620h-170v237q-22 -35 -63 -61t-92 -26q-96 0 -146 71.5t-50 179.5q0 118 48 173.5t123 55.5q60 0 107 -27.5t74 -75.5l19 93h150zM354.5 151q21.5 30 25.5 69l-1 30q-4 42 -26.5 66t-62.5 24q-41 0 -60.5 -26.5t-19.5 -71.5q0 -68 19.5 -94.5t57.5 -26.5
q46 0 67.5 30z" />
    <glyph glyph-name="r" unicode="r" horiz-adv-x="403" 
d="M281.5 443.5q42.5 31.5 101.5 25.5v-163q-38 6 -64 6q-55 0 -77 -26t-22 -81v-205h-170v460h150l14 -105q25 57 67.5 88.5z" />
    <glyph glyph-name="s" unicode="s" horiz-adv-x="449" 
d="M123 128q56 -12 104 -12t48 21q0 9 -6 14.5t-22 9.5l-72 17q-86 20 -120.5 60.5t-34.5 87.5q0 72 55.5 108t159.5 36q43 0 89 -6.5t84 -16.5v-141q-42 16 -91 27t-89 11q-20 0 -29 -5t-9 -16q0 -8 9 -15.5t35 -14.5l81 -21q59 -15 91.5 -49t32.5 -85q0 -64 -51.5 -106
t-151.5 -42q-132 0 -200 34v136q31 -20 87 -32z" />
    <glyph glyph-name="t" unicode="t" horiz-adv-x="459" 
d="M15 423q60 31 92.5 64t63.5 89h107v-116h151v-120h-151v-159q0 -30 12.5 -41t41.5 -11q41 0 86 17v-121q-21 -13 -67 -24t-83 -11q-82 0 -121 40t-39 112v198h-93v83z" />
    <glyph glyph-name="u" unicode="u" horiz-adv-x="555" 
d="M345 225q0 -40 -27.5 -60.5t-64.5 -20.5q-23 0 -35.5 14t-12.5 41v261h-170v-302q0 -82 43 -125t107 -43q59 0 104 26.5t72 70.5l19 -87h135v460h-170v-235z" />
    <glyph glyph-name="v" unicode="v" horiz-adv-x="520" 
d="M520 460l-141 -460h-236l-143 460h179l56 -229l23 -83h4l23 83l56 229h179z" />
    <glyph glyph-name="w" unicode="w" horiz-adv-x="844" 
d="M399 212l-73 -212h-195l-121 460h179l37 -219l7 -87h4l24 87l75 219h182l66 -219l23 -87h4l9 87l35 219h179l-120 -460h-206l-62 212l-21 92h-4z" />
    <glyph glyph-name="x" unicode="x" horiz-adv-x="512" 
d="M186 460l70 -115l70 115h186l-158 -228l158 -232h-186l-70 119l-70 -119h-186l158 232l-158 228h186z" />
    <glyph glyph-name="y" unicode="y" horiz-adv-x="522" 
d="M313 -44q-25 -60 -65.5 -88t-103.5 -28q-48 0 -103 22v123q23 -10 36 -12.5t34 -2.5q26 0 45 14t33 54l-189 422h166l63 -147l33 -87h4l81 234h175z" />
    <glyph glyph-name="z" unicode="z" horiz-adv-x="433" 
d="M200 330l-165 -250v-80h373l1 130h-161l165 250v80h-383v-130h170z" />
    <glyph glyph-name="braceleft" unicode="{" horiz-adv-x="487" 
d="M293.5 400.5q-1.5 -43.5 -29 -66t-81.5 -25.5v-10q54 -3 77.5 -22.5t28.5 -44.5t6 -76l1 -30q0 -10 1 -47t26 -49.5t80 -12.5h24v-140h-127q-69 0 -116.5 40.5t-47.5 131.5v88q0 46 -25.5 66t-63.5 20h-17v161h17q38 0 63.5 20t25.5 66v88q0 91 47.5 131.5t116.5 40.5
h127v-140h-24q-50 0 -72.5 -9.5t-27.5 -27t-6 -55.5q-1 -6 -1 -20l-1 -27q0 -7 -1.5 -50.5z" />
    <glyph glyph-name="bar" unicode="|" horiz-adv-x="339" 
d="M251 -180v910h-180v-910h180z" />
    <glyph glyph-name="braceright" unicode="}" horiz-adv-x="487" 
d="M190 498q-1 38 -6 55.5t-27.5 27t-72.5 9.5h-24v140h127q69 0 116.5 -40.5t47.5 -131.5v-88q0 -46 25.5 -66t63.5 -20h17v-161h-17q-38 0 -63.5 -20t-25.5 -66v-88q0 -91 -47.5 -131.5t-116.5 -40.5h-127v140h24q55 0 77 11t25 27t5 71l1 30q1 51 6 76t28.5 44.5
t77.5 22.5v10q-54 3 -77.5 22.5t-28 43t-6.5 76.5l-1 27q0 14 -1 20z" />
    <glyph glyph-name="exclamdown" unicode="&#xa1;" horiz-adv-x="306" 
d="M68 301v160h168v-160h-168zM58 -179l49 423h90l51 -423h-190z" />
    <glyph glyph-name="sterling" unicode="&#xa3;" horiz-adv-x="588" 
d="M530 132v-133h-484v102q44 19 67 36t34.5 43.5t11.5 69.5q0 14 -1 20h-117v88h80q-20 33 -30.5 61t-10.5 69q0 40 24.5 77t76.5 61t130 24q71 0 105.5 -7t74.5 -23l22 -9v-130q-50 18 -83 27t-65 9q-43 0 -67 -8t-24 -38q0 -15 6 -33t18 -46l15 -34h200l1 -91h-180
q1 -6 1 -17q0 -37 -11.5 -58t-32.5 -42l-16 -18h255z" />
    <glyph glyph-name="dieresis" unicode="&#xa8;" horiz-adv-x="497" 
d="M83 622h131v-124h-131v124zM283 622h131v-124h-131v124z" />
    <glyph glyph-name="copyright" unicode="&#xa9;" horiz-adv-x="810" 
d="M678.5 53.5q91.5 87.5 91.5 266.5t-91.5 266.5t-272.5 87.5q-366 0 -366 -354t366 -354q181 0 272.5 87.5zM222 136q-62 62 -62 184q0 121 62 183t184 62q121 0 183 -62t62 -183t-62 -183.5t-183 -62.5q-122 0 -184 62zM537 177v106q-47 -10 -86 -10q-29 0 -39.5 11.5
t-10.5 36.5q0 23 9.5 33.5t35.5 10.5q37 0 91 -8v116q-63 22 -124 22q-87 0 -127.5 -43t-40.5 -131q0 -89 40 -133t127 -44q62 0 125 33z" />
    <glyph glyph-name="guillemotleft" unicode="&#xab;" horiz-adv-x="568" 
d="M288 135l-133 -53l-17 26q-81 124 -113 164v4q32 40 113 164l17 26l133 -53q-54 -73 -128 -136v-6q74 -63 128 -136zM528 135l-133 -53l-17 26q-81 124 -113 164v4q32 40 113 164l17 26l133 -53q-54 -73 -128 -136v-6q74 -63 128 -136z" />
    <glyph glyph-name="degree" unicode="&#xb0;" horiz-adv-x="293" 
d="M78.5 379q-33.5 20 -53.5 53.5t-20 72.5t20 72.5t53.5 53t72.5 19.5t72.5 -19.5t53 -53t19.5 -72.5t-19.5 -72.5t-53 -53.5t-72.5 -20t-72.5 20zM182 473q13 13 13 32q0 18 -13 31t-31 13q-19 0 -32 -13t-13 -31q0 -19 13 -32t32 -13q18 0 31 13z" />
    <glyph glyph-name="plusminus" unicode="&#xb1;" horiz-adv-x="641" 
d="M386 442h175v-130h-175v-87h-130v87h-176v130h176v114h130v-114zM80 39v130h481v-130h-481z" />
    <glyph glyph-name="periodcentered" unicode="&#xb7;" horiz-adv-x="200" 
d="M50 185v110h100v-110h-100z" />
    <glyph glyph-name="guillemotright" unicode="&#xbb;" horiz-adv-x="613" 
d="M160 277q-74 63 -128 136l133 53l17 -26q81 -124 113 -164v-4q-32 -40 -113 -164l-17 -26l-133 53q54 73 128 136v6zM400 277q-74 63 -128 136l133 53l17 -26q81 -124 113 -164v-4q-32 -40 -113 -164l-17 -26l-133 53q54 73 128 136v6z" />
    <glyph glyph-name="questiondown" unicode="&#xbf;" horiz-adv-x="534" 
d="M212 640h168v-160h-168v160zM52 249.5q30 43.5 79 71.5t104 35l17 67h90l35 -125q-14 -8 -26 -14.5t-21 -11.5q-45 -24 -63 -39t-18 -41q0 -23 21 -38.5t62 -15.5q34 0 72.5 11.5t67.5 30.5v-148q-73 -42 -200 -42q-107 0 -178.5 41.5t-71.5 125.5q0 49 30 92.5z" />
    <glyph glyph-name="Agrave" unicode="&#xc0;" horiz-adv-x="626" 
d="M434 0l-29 103h-183l-29 -103h-174l197 640h197l193 -640h-172zM256 226h115l-17 63l-37 151h-9l-35 -151zM372 696h-145l-96 130h183z" />
    <glyph glyph-name="Aacute" unicode="&#xc1;" horiz-adv-x="626" 
d="M434 0l-29 103h-183l-29 -103h-174l197 640h197l193 -640h-172zM256 226h115l-17 63l-37 151h-9l-35 -151zM476 826l-96 -130h-145l58 130h183z" />
    <glyph glyph-name="Acircumflex" unicode="&#xc2;" horiz-adv-x="626" 
d="M434 0l-29 103h-183l-29 -103h-174l197 640h197l193 -640h-172zM256 226h115l-17 63l-37 151h-9l-35 -151zM386.5 794.5q46.5 -15.5 86.5 -24.5l-17 -96q-23 0 -70.5 12.5t-70.5 27.5h-2q-23 -15 -70.5 -27.5t-70.5 -12.5l-17 96q40 9 86.5 24.5t71.5 29.5h2
q25 -14 71.5 -29.5z" />
    <glyph glyph-name="Atilde" unicode="&#xc3;" horiz-adv-x="626" 
d="M434 0l-29 103h-183l-29 -103h-174l197 640h197l193 -640h-172zM256 226h115l-17 63l-37 151h-9l-35 -151zM343 798.5q21 -5.5 40 -5.5q33 0 68 20v-99q-38 -26 -89 -26q-23 0 -48 5q-10 2 -31 7.5t-38 5.5q-33 0 -68 -20v99q39 27 88 27q17 0 49 -6q8 -2 29 -7.5z" />
    <glyph glyph-name="Adieresis" unicode="&#xc4;" horiz-adv-x="626" 
d="M434 0l-29 103h-183l-29 -103h-174l197 640h197l193 -640h-172zM256 226h115l-17 63l-37 151h-9l-35 -151zM148 802h131v-124h-131v124zM348 802h131v-124h-131v124z" />
    <glyph glyph-name="Aring" unicode="&#xc5;" horiz-adv-x="626" 
d="M434 0l-29 103h-183l-29 -103h-174l197 640h197l193 -640h-172zM256 226h115l-17 63l-37 151h-9l-35 -151zM400.5 895q-33.5 30 -86.5 30t-86.5 -30t-33.5 -81q0 -52 35 -84.5t85 -32.5q51 0 85.5 33t34.5 84t-33.5 81zM336 787.5q-9 -10.5 -22 -10.5t-22 10.5t-9 25.5
t8 23.5t23 8.5t23 -8.5t8 -23.5t-9 -25.5z" />
    <glyph glyph-name="AE" unicode="&#xc6;" horiz-adv-x="799" 
d="M765 507h-207v-132h178v-102h-178v-140h207v-133h-382v109h-155l-42 -109h-167l270 640h476v-133zM383 235v261h-17l-43 -142l-46 -119h106z" />
    <glyph glyph-name="Ccedilla" unicode="&#xc7;" horiz-adv-x="586" 
d="M253 462.5q-37 -43.5 -37 -143.5q0 -93 44.5 -139.5t128.5 -46.5q47 0 84.5 17t63.5 42v-123q-24 -31 -57 -49.5t-82 -25.5l-37 -37q41 -7 58.5 -20t17.5 -32q0 -9 -3 -18q-4 -14 -23.5 -31t-54 -29t-81.5 -12q-35 0 -71 7v62q34 -8 54 -8q25 0 40.5 7.5t15.5 15.5
q0 9 -18 17t-55 13l-4 13l47 52q-69 12 -127 57t-92.5 119t-34.5 168q0 149 83 230.5t237 81.5q52 0 108.5 -14.5t88.5 -34.5v-143q-53 27 -94 37.5t-86 10.5q-77 0 -114 -43.5z" />
    <glyph glyph-name="Egrave" unicode="&#xc8;" horiz-adv-x="550" 
d="M233 133v135h243v122h-243v117h283v133h-458v-640h458v133h-283zM345 696h-145l-96 130h183z" />
    <glyph glyph-name="Eacute" unicode="&#xc9;" horiz-adv-x="550" 
d="M233 133v135h243v122h-243v117h283v133h-458v-640h458v133h-283zM449 826l-96 -130h-145l58 130h183z" />
    <glyph glyph-name="Ecircumflex" unicode="&#xca;" horiz-adv-x="550" 
d="M233 133v135h243v122h-243v117h283v133h-458v-640h458v133h-283zM359.5 794.5q46.5 -15.5 86.5 -24.5l-17 -96q-23 0 -70.5 12.5t-70.5 27.5h-2q-23 -15 -70.5 -27.5t-70.5 -12.5l-17 96q40 9 86.5 24.5t71.5 29.5h2q25 -14 71.5 -29.5z" />
    <glyph glyph-name="Edieresis" unicode="&#xcb;" horiz-adv-x="550" 
d="M233 133v135h243v122h-243v117h283v133h-458v-640h458v133h-283zM121 802h131v-124h-131v124zM321 802h131v-124h-131v124z" />
    <glyph glyph-name="Igrave" unicode="&#xcc;" horiz-adv-x="291" 
d="M233 640h-175v-640h175v640zM204 696h-145l-96 130h183z" />
    <glyph glyph-name="Iacute" unicode="&#xcd;" horiz-adv-x="291" 
d="M233 640h-175v-640h175v640zM308 826l-96 -130h-145l58 130h183z" />
    <glyph glyph-name="Icircumflex" unicode="&#xce;" horiz-adv-x="291" 
d="M233 640h-175v-640h175v640zM218.5 794.5q46.5 -15.5 86.5 -24.5l-17 -96q-23 0 -70.5 12.5t-70.5 27.5h-2q-23 -15 -70.5 -27.5t-70.5 -12.5l-17 96q40 9 86.5 24.5t71.5 29.5h2q25 -14 71.5 -29.5z" />
    <glyph glyph-name="Idieresis" unicode="&#xcf;" horiz-adv-x="291" 
d="M233 640h-175v-640h175v640zM-20 802h131v-124h-131v124zM180 802h131v-124h-131v124z" />
    <glyph glyph-name="Eth" unicode="&#xd0;" horiz-adv-x="665" 
d="M568 556q67 -84 67 -218q0 -96 -38 -172.5t-114 -121t-185 -44.5h-240v241h-67v130h67v269h269q174 0 241 -84zM415.5 190q45.5 57 45.5 142q0 93 -44.5 134t-130.5 41h-53v-136h68v-130h-68v-108h47q90 0 135.5 57z" />
    <glyph glyph-name="Ntilde" unicode="&#xd1;" horiz-adv-x="689" 
d="M631 640v-640h-187l-221 386h-10l20 -262v-124h-175v640h187l223 -386h11l-23 262l1 124h174zM380 798.5q21 -5.5 40 -5.5q33 0 68 20v-99q-38 -26 -89 -26q-23 0 -48 5q-10 2 -31 7.5t-38 5.5q-33 0 -68 -20v99q39 27 88 27q17 0 49 -6q8 -2 29 -7.5z" />
    <glyph glyph-name="Ograve" unicode="&#xd2;" horiz-adv-x="687" 
d="M68.5 156.5q38.5 -78.5 109.5 -122.5t165 -44t165.5 46t110 127.5t38.5 185.5q0 99 -40 166.5t-111 101t-163 33.5q-149 0 -231 -79t-82 -236q0 -100 38.5 -178.5zM225 430.5q10 36.5 38 56t80 19.5q76 0 103 -42t27 -132q0 -96 -34 -146.5t-96 -50.5q-57 0 -92.5 52
t-35.5 148q0 59 10 95.5zM401 696h-145l-96 130h183z" />
    <glyph glyph-name="Oacute" unicode="&#xd3;" horiz-adv-x="687" 
d="M68.5 156.5q38.5 -78.5 109.5 -122.5t165 -44t165.5 46t110 127.5t38.5 185.5q0 99 -40 166.5t-111 101t-163 33.5q-149 0 -231 -79t-82 -236q0 -100 38.5 -178.5zM225 430.5q10 36.5 38 56t80 19.5q76 0 103 -42t27 -132q0 -96 -34 -146.5t-96 -50.5q-57 0 -92.5 52
t-35.5 148q0 59 10 95.5zM505 826l-96 -130h-145l58 130h183z" />
    <glyph glyph-name="Ocircumflex" unicode="&#xd4;" horiz-adv-x="687" 
d="M68.5 156.5q38.5 -78.5 109.5 -122.5t165 -44t165.5 46t110 127.5t38.5 185.5q0 99 -40 166.5t-111 101t-163 33.5q-149 0 -231 -79t-82 -236q0 -100 38.5 -178.5zM225 430.5q10 36.5 38 56t80 19.5q76 0 103 -42t27 -132q0 -96 -34 -146.5t-96 -50.5q-57 0 -92.5 52
t-35.5 148q0 59 10 95.5zM415.5 794.5q46.5 -15.5 86.5 -24.5l-17 -96q-23 0 -70.5 12.5t-70.5 27.5h-2q-23 -15 -70.5 -27.5t-70.5 -12.5l-17 96q40 9 86.5 24.5t71.5 29.5h2q25 -14 71.5 -29.5z" />
    <glyph glyph-name="Otilde" unicode="&#xd5;" horiz-adv-x="687" 
d="M68.5 156.5q38.5 -78.5 109.5 -122.5t165 -44t165.5 46t110 127.5t38.5 185.5q0 99 -40 166.5t-111 101t-163 33.5q-149 0 -231 -79t-82 -236q0 -100 38.5 -178.5zM225 430.5q10 36.5 38 56t80 19.5q76 0 103 -42t27 -132q0 -96 -34 -146.5t-96 -50.5q-57 0 -92.5 52
t-35.5 148q0 59 10 95.5zM372 798.5q21 -5.5 40 -5.5q33 0 68 20v-99q-38 -26 -89 -26q-23 0 -48 5q-10 2 -31 7.5t-38 5.5q-33 0 -68 -20v99q39 27 88 27q17 0 49 -6q8 -2 29 -7.5z" />
    <glyph glyph-name="Odieresis" unicode="&#xd6;" horiz-adv-x="687" 
d="M68.5 156.5q38.5 -78.5 109.5 -122.5t165 -44t165.5 46t110 127.5t38.5 185.5q0 99 -40 166.5t-111 101t-163 33.5q-149 0 -231 -79t-82 -236q0 -100 38.5 -178.5zM225 430.5q10 36.5 38 56t80 19.5q76 0 103 -42t27 -132q0 -96 -34 -146.5t-96 -50.5q-57 0 -92.5 52
t-35.5 148q0 59 10 95.5zM177 802h131v-124h-131v124zM377 802h131v-124h-131v124z" />
    <glyph glyph-name="multiply" unicode="&#xd7;" horiz-adv-x="480" 
d="M334 316l103 -103l-95 -93l-102 102l-103 -104l-93 95l103 103l-103 102l93 95l103 -104l102 102l95 -93z" />
    <glyph glyph-name="Oslash" unicode="&#xd8;" horiz-adv-x="701" 
d="M618 512q39 -67 39 -163q0 -104 -38.5 -185.5t-110 -127.5t-165.5 -46q-65 0 -122 23l-45 -57l-129 104l45 57q-30 43 -46 98t-16 118q0 158 82 237.5t231 79.5q86 0 151 -28l48 60l129 -103zM219 273l180 225q-24 8 -56 8q-52 0 -80 -19.5t-38 -56t-10 -95.5
q0 -38 4 -62zM442.5 191.5q33.5 56.5 29.5 164.5v3l-172 -215q19 -9 43 -9q66 0 99.5 56.5z" />
    <glyph glyph-name="Ugrave" unicode="&#xd9;" horiz-adv-x="650" 
d="M402.5 158q-23.5 -24 -77.5 -24t-77.5 24t-23.5 91l-1 392h-175l1 -399q0 -118 73.5 -185t202.5 -67t202.5 67t73.5 185l1 399h-175l-1 -392q0 -67 -23.5 -91zM383 696h-145l-96 130h183z" />
    <glyph glyph-name="Uacute" unicode="&#xda;" horiz-adv-x="650" 
d="M402.5 158q-23.5 -24 -77.5 -24t-77.5 24t-23.5 91l-1 392h-175l1 -399q0 -118 73.5 -185t202.5 -67t202.5 67t73.5 185l1 399h-175l-1 -392q0 -67 -23.5 -91zM487 826l-96 -130h-145l58 130h183z" />
    <glyph glyph-name="Ucircumflex" unicode="&#xdb;" horiz-adv-x="650" 
d="M402.5 158q-23.5 -24 -77.5 -24t-77.5 24t-23.5 91l-1 392h-175l1 -399q0 -118 73.5 -185t202.5 -67t202.5 67t73.5 185l1 399h-175l-1 -392q0 -67 -23.5 -91zM397.5 794.5q46.5 -15.5 86.5 -24.5l-17 -96q-23 0 -70.5 12.5t-70.5 27.5h-2q-23 -15 -70.5 -27.5
t-70.5 -12.5l-17 96q40 9 86.5 24.5t71.5 29.5h2q25 -14 71.5 -29.5z" />
    <glyph glyph-name="Udieresis" unicode="&#xdc;" horiz-adv-x="650" 
d="M402.5 158q-23.5 -24 -77.5 -24t-77.5 24t-23.5 91l-1 392h-175l1 -399q0 -118 73.5 -185t202.5 -67t202.5 67t73.5 185l1 399h-175l-1 -392q0 -67 -23.5 -91zM159 802h131v-124h-131v124zM359 802h131v-124h-131v124z" />
    <glyph glyph-name="Yacute" unicode="&#xdd;" horiz-adv-x="623" 
d="M351 488l70 152h193l-215 -431v-209h-175v209l-215 431h193l70 -152l34 -97h11zM478 826l-96 -130h-145l58 130h183z" />
    <glyph glyph-name="Thorn" unicode="&#xde;" horiz-adv-x="666" 
d="M581 498q65 -50 65 -165q0 -64 -30.5 -118.5t-92 -87.5t-150.5 -33h-140v-94h-175v640h175v-92h162q121 0 186 -50zM438 252.5q27 23.5 27 68.5q0 52 -25.5 72t-72.5 20l-134 2v-188l121 1q57 1 84 24.5z" />
    <glyph glyph-name="germandbls" unicode="&#xdf;" horiz-adv-x="586" 
d="M538 252q16 -21 27 -46t11 -55q0 -48 -21.5 -84.5t-58.5 -56.5t-82 -20q-39 0 -71 9.5t-49 23.5v106q27 -15 62 -15q25 0 37.5 11t12.5 29q0 21 -22 45l-92 100q46 49 64 77t18 67q0 21 -18.5 38t-53.5 17q-74 0 -74 -55v-443h-170v466q0 163 237 163q73 0 129.5 -18.5
t88 -52t31.5 -76.5q0 -65 -82 -142l28 -31q32 -36 48 -57z" />
    <glyph glyph-name="agrave" unicode="&#xe0;" horiz-adv-x="522" 
d="M421 417.5q61 -52.5 61 -143.5l-12 -274h-140l-18 77q-34 -43 -68.5 -65t-79.5 -22q-41 0 -71.5 19t-46.5 49t-16 62q0 57 46 93.5t123 52.5l113 24q-8 49 -95 49q-46 0 -93.5 -17t-76.5 -40v144q55 25 104 34.5t108 9.5q101 0 162 -52.5zM293.5 125.5
q20.5 23.5 20.5 67.5v13l-66 -15q-53 -13 -53 -44q0 -21 11.5 -33t30.5 -12q36 0 56.5 23.5zM311 516h-145l-96 130h183z" />
    <glyph glyph-name="aacute" unicode="&#xe1;" horiz-adv-x="522" 
d="M421 417.5q61 -52.5 61 -143.5l-12 -274h-140l-18 77q-34 -43 -68.5 -65t-79.5 -22q-41 0 -71.5 19t-46.5 49t-16 62q0 57 46 93.5t123 52.5l113 24q-8 49 -95 49q-46 0 -93.5 -17t-76.5 -40v144q55 25 104 34.5t108 9.5q101 0 162 -52.5zM293.5 125.5
q20.5 23.5 20.5 67.5v13l-66 -15q-53 -13 -53 -44q0 -21 11.5 -33t30.5 -12q36 0 56.5 23.5zM415 646l-96 -130h-145l58 130h183z" />
    <glyph glyph-name="acircumflex" unicode="&#xe2;" horiz-adv-x="522" 
d="M421 417.5q61 -52.5 61 -143.5l-12 -274h-140l-18 77q-34 -43 -68.5 -65t-79.5 -22q-41 0 -71.5 19t-46.5 49t-16 62q0 57 46 93.5t123 52.5l113 24q-8 49 -95 49q-46 0 -93.5 -17t-76.5 -40v144q55 25 104 34.5t108 9.5q101 0 162 -52.5zM293.5 125.5
q20.5 23.5 20.5 67.5v13l-66 -15q-53 -13 -53 -44q0 -21 11.5 -33t30.5 -12q36 0 56.5 23.5zM325.5 614.5q46.5 -15.5 86.5 -24.5l-17 -96q-23 0 -70.5 12.5t-70.5 27.5h-2q-23 -15 -70.5 -27.5t-70.5 -12.5l-17 96q40 9 86.5 24.5t71.5 29.5h2q25 -14 71.5 -29.5z" />
    <glyph glyph-name="atilde" unicode="&#xe3;" horiz-adv-x="522" 
d="M421 417.5q61 -52.5 61 -143.5l-12 -274h-140l-18 77q-34 -43 -68.5 -65t-79.5 -22q-41 0 -71.5 19t-46.5 49t-16 62q0 57 46 93.5t123 52.5l113 24q-8 49 -95 49q-46 0 -93.5 -17t-76.5 -40v144q55 25 104 34.5t108 9.5q101 0 162 -52.5zM293.5 125.5
q20.5 23.5 20.5 67.5v13l-66 -15q-53 -13 -53 -44q0 -21 11.5 -33t30.5 -12q36 0 56.5 23.5zM282 618.5q21 -5.5 40 -5.5q33 0 68 20v-99q-38 -26 -89 -26q-23 0 -48 5q-10 2 -31 7.5t-38 5.5q-33 0 -68 -20v99q39 27 88 27q17 0 49 -6q8 -2 29 -7.5z" />
    <glyph glyph-name="adieresis" unicode="&#xe4;" horiz-adv-x="522" 
d="M421 417.5q61 -52.5 61 -143.5l-12 -274h-140l-18 77q-34 -43 -68.5 -65t-79.5 -22q-41 0 -71.5 19t-46.5 49t-16 62q0 57 46 93.5t123 52.5l113 24q-8 49 -95 49q-46 0 -93.5 -17t-76.5 -40v144q55 25 104 34.5t108 9.5q101 0 162 -52.5zM293.5 125.5
q20.5 23.5 20.5 67.5v13l-66 -15q-53 -13 -53 -44q0 -21 11.5 -33t30.5 -12q36 0 56.5 23.5zM87 622h131v-124h-131v124zM287 622h131v-124h-131v124z" />
    <glyph glyph-name="aring" unicode="&#xe5;" horiz-adv-x="522" 
d="M421 417.5q61 -52.5 61 -143.5l-12 -274h-140l-18 77q-34 -43 -68.5 -65t-79.5 -22q-41 0 -71.5 19t-46.5 49t-16 62q0 57 46 93.5t123 52.5l113 24q-8 49 -95 49q-46 0 -93.5 -17t-76.5 -40v144q55 25 104 34.5t108 9.5q101 0 162 -52.5zM293.5 125.5
q20.5 23.5 20.5 67.5v13l-66 -15q-53 -13 -53 -44q0 -21 11.5 -33t30.5 -12q36 0 56.5 23.5zM339.5 715q-33.5 30 -86.5 30t-86.5 -30t-33.5 -81q0 -52 35 -84.5t85 -32.5q51 0 85.5 33t34.5 84t-33.5 81zM275 607.5q-9 -10.5 -22 -10.5t-22 10.5t-9 25.5t8 23.5t23 8.5
t23 -8.5t8 -23.5t-9 -25.5z" />
    <glyph glyph-name="ae" unicode="&#xe6;" horiz-adv-x="771" 
d="M690 421q56 -54 56 -149q0 -36 -9 -77h-269q8 -38 35 -53t80 -15q40 0 79 9t61 22l-3 -134q-23 -15 -68.5 -27t-97.5 -12q-72 0 -125 28.5t-88 71.5q-28 -48 -73.5 -74t-102.5 -26q-41 0 -72 20t-47 51t-16 64q0 55 37.5 88.5t114.5 51.5l121 29q-2 55 -96 55
q-55 0 -102.5 -18.5t-67.5 -34.5v140q55 25 104 34.5t108 9.5q42 0 87 -19t66 -46q10 23 52.5 44t84.5 21q95 0 151 -54zM569.5 331q-12.5 16 -39.5 16q-32 0 -46 -20.5t-14 -46.5h112q0 35 -12.5 51zM287 116q17 18 17 44l-2 41l-54 -14q-24 -7 -38.5 -16.5t-14.5 -27.5
q0 -21 11.5 -33t30.5 -12q33 0 50 18z" />
    <glyph glyph-name="ccedilla" unicode="&#xe7;" horiz-adv-x="466" 
d="M223.5 317q-23.5 -24 -23.5 -79q0 -60 31.5 -90t81.5 -30q31 0 66 8.5t56 26.5l-2 -119q-25 -16 -46.5 -25t-49.5 -13l-39 -39q41 -7 58.5 -20t17.5 -32q0 -9 -3 -18q-4 -14 -23.5 -31t-54 -29t-81.5 -12q-35 0 -71 7v62q34 -8 54 -8q25 0 40.5 7.5t15.5 15.5q0 9 -18 17
t-55 13l-4 13l47 51q-54 10 -97.5 42.5t-68.5 85.5t-25 120q0 229 237 229q91 0 174 -29v-138q-64 38 -138 38q-56 0 -79.5 -24z" />
    <glyph glyph-name="egrave" unicode="&#xe8;" horiz-adv-x="502" 
d="M421 416.5q56 -53.5 56 -146.5q0 -34 -9 -75h-268q10 -41 40.5 -59.5t83.5 -18.5q37 0 71 11t59 26l-3 -125q-23 -15 -68.5 -27t-97.5 -12q-120 0 -187.5 67t-67.5 181q0 232 240 232q95 0 151 -53.5zM313 280q0 31 -13.5 46.5t-42.5 15.5q-27 0 -41 -13t-19 -49h116z
M323 516h-145l-96 130h183z" />
    <glyph glyph-name="eacute" unicode="&#xe9;" horiz-adv-x="502" 
d="M421 416.5q56 -53.5 56 -146.5q0 -34 -9 -75h-268q10 -41 40.5 -59.5t83.5 -18.5q37 0 71 11t59 26l-3 -125q-23 -15 -68.5 -27t-97.5 -12q-120 0 -187.5 67t-67.5 181q0 232 240 232q95 0 151 -53.5zM313 280q0 31 -13.5 46.5t-42.5 15.5q-27 0 -41 -13t-19 -49h116z
M427 646l-96 -130h-145l58 130h183z" />
    <glyph glyph-name="ecircumflex" unicode="&#xea;" horiz-adv-x="502" 
d="M421 416.5q56 -53.5 56 -146.5q0 -34 -9 -75h-268q10 -41 40.5 -59.5t83.5 -18.5q37 0 71 11t59 26l-3 -125q-23 -15 -68.5 -27t-97.5 -12q-120 0 -187.5 67t-67.5 181q0 232 240 232q95 0 151 -53.5zM313 280q0 31 -13.5 46.5t-42.5 15.5q-27 0 -41 -13t-19 -49h116z
M337.5 614.5q46.5 -15.5 86.5 -24.5l-17 -96q-23 0 -70.5 12.5t-70.5 27.5h-2q-23 -15 -70.5 -27.5t-70.5 -12.5l-17 96q40 9 86.5 24.5t71.5 29.5h2q25 -14 71.5 -29.5z" />
    <glyph glyph-name="edieresis" unicode="&#xeb;" horiz-adv-x="502" 
d="M421 416.5q56 -53.5 56 -146.5q0 -34 -9 -75h-268q10 -41 40.5 -59.5t83.5 -18.5q37 0 71 11t59 26l-3 -125q-23 -15 -68.5 -27t-97.5 -12q-120 0 -187.5 67t-67.5 181q0 232 240 232q95 0 151 -53.5zM313 280q0 31 -13.5 46.5t-42.5 15.5q-27 0 -41 -13t-19 -49h116z
M99 622h131v-124h-131v124zM299 622h131v-124h-131v124z" />
    <glyph glyph-name="igrave" unicode="&#xec;" horiz-adv-x="270" 
d="M50 460v-460h170v460h-170zM192 516h-145l-96 130h183z" />
    <glyph glyph-name="iacute" unicode="&#xed;" horiz-adv-x="270" 
d="M220 460h-170v-460h170v460zM297 646l-96 -130h-145l58 130h183z" />
    <glyph glyph-name="icircumflex" unicode="&#xee;" horiz-adv-x="270" 
d="M50 460v-460h170v460h-170zM206.5 614.5q46.5 -15.5 86.5 -24.5l-17 -96q-23 0 -70.5 12.5t-70.5 27.5h-2q-23 -15 -70.5 -27.5t-70.5 -12.5l-17 96q40 9 86.5 24.5t71.5 29.5h2q25 -14 71.5 -29.5z" />
    <glyph glyph-name="idieresis" unicode="&#xef;" horiz-adv-x="270" 
d="M50 460v-460h170v460h-170zM-32 622h131v-124h-131v124zM168 622h131v-124h-131v124z" />
    <glyph glyph-name="eth" unicode="&#xf0;" horiz-adv-x="563" 
d="M533 295q0 -102 -40.5 -172t-102 -104t-126.5 -34q-71 0 -124 32t-81.5 87.5t-28.5 124.5q0 111 49 164t122 53q80 0 134 -53q-17 51 -47 97l-66 -32l-45 87l57 10q-43 44 -104 78v7h220q16 -13 41 -36l71 36l39 -82l-57 -14q89 -116 89 -249zM327 137.5q20 30.5 25 98.5
q-12 112 -83 112q-36 0 -52.5 -29.5t-16.5 -89.5q0 -48 15 -85t48 -37q44 0 64 30.5z" />
    <glyph glyph-name="ntilde" unicode="&#xf1;" horiz-adv-x="580" 
d="M220 224q0 41 22 63.5t61 22.5q36 0 51.5 -16t15.5 -49v-245h170v298q0 84 -42.5 128t-113.5 44q-67 0 -106 -28.5t-67 -94.5l-11 113h-150v-460h170v224zM309 618.5q21 -5.5 40 -5.5q33 0 68 20v-99q-38 -26 -89 -26q-23 0 -48 5q-10 2 -31 7.5t-38 5.5q-33 0 -68 -20
v99q39 27 88 27q17 0 49 -6q8 -2 29 -7.5z" />
    <glyph glyph-name="ograve" unicode="&#xf2;" horiz-adv-x="564" 
d="M87 415q-57 -60 -57 -174q0 -65 24 -123t80.5 -95.5t147.5 -37.5t147.5 37.5t80.5 95.5t24 123q0 114 -57 174t-195 60t-195 -60zM220 150q-20 35 -20 90q0 39 6 61t23.5 33t52.5 11t52.5 -11t23.5 -32.5t6 -60.5q0 -55 -20 -90.5t-62 -35.5t-62 35zM340 516h-145
l-96 130h183z" />
    <glyph glyph-name="oacute" unicode="&#xf3;" horiz-adv-x="564" 
d="M87 415q-57 -60 -57 -174q0 -65 24 -123t80.5 -95.5t147.5 -37.5t147.5 37.5t80.5 95.5t24 123q0 114 -57 174t-195 60t-195 -60zM220 150q-20 35 -20 90q0 39 6 61t23.5 33t52.5 11t52.5 -11t23.5 -32.5t6 -60.5q0 -55 -20 -90.5t-62 -35.5t-62 35zM444 646l-96 -130
h-145l58 130h183z" />
    <glyph glyph-name="ocircumflex" unicode="&#xf4;" horiz-adv-x="564" 
d="M87 415q-57 -60 -57 -174q0 -65 24 -123t80.5 -95.5t147.5 -37.5t147.5 37.5t80.5 95.5t24 123q0 114 -57 174t-195 60t-195 -60zM220 150q-20 35 -20 90q0 39 6 61t23.5 33t52.5 11t52.5 -11t23.5 -32.5t6 -60.5q0 -55 -20 -90.5t-62 -35.5t-62 35zM354.5 614.5
q46.5 -15.5 86.5 -24.5l-17 -96q-23 0 -70.5 12.5t-70.5 27.5h-2q-23 -15 -70.5 -27.5t-70.5 -12.5l-17 96q40 9 86.5 24.5t71.5 29.5h2q25 -14 71.5 -29.5z" />
    <glyph glyph-name="otilde" unicode="&#xf5;" horiz-adv-x="564" 
d="M87 415q-57 -60 -57 -174q0 -65 24 -123t80.5 -95.5t147.5 -37.5t147.5 37.5t80.5 95.5t24 123q0 114 -57 174t-195 60t-195 -60zM220 150q-20 35 -20 90q0 39 6 61t23.5 33t52.5 11t52.5 -11t23.5 -32.5t6 -60.5q0 -55 -20 -90.5t-62 -35.5t-62 35zM311 618.5
q21 -5.5 40 -5.5q33 0 68 20v-99q-38 -26 -89 -26q-23 0 -48 5q-10 2 -31 7.5t-38 5.5q-33 0 -68 -20v99q39 27 88 27q17 0 49 -6q8 -2 29 -7.5z" />
    <glyph glyph-name="odieresis" unicode="&#xf6;" horiz-adv-x="564" 
d="M87 415q-57 -60 -57 -174q0 -65 24 -123t80.5 -95.5t147.5 -37.5t147.5 37.5t80.5 95.5t24 123q0 114 -57 174t-195 60t-195 -60zM220 150q-20 35 -20 90q0 39 6 61t23.5 33t52.5 11t52.5 -11t23.5 -32.5t6 -60.5q0 -55 -20 -90.5t-62 -35.5t-62 35zM116 622h131v-124
h-131v124zM316 622h131v-124h-131v124z" />
    <glyph glyph-name="divide" unicode="&#xf7;" horiz-adv-x="581" 
d="M209 560h157v-127h-157v127zM60 368h461v-130h-461v130zM209 173h157v-127h-157v127z" />
    <glyph glyph-name="oslash" unicode="&#xf8;" horiz-adv-x="564" 
d="M534 241q0 -65 -24 -123t-80.5 -95.5t-147.5 -37.5q-51 0 -93 13l-35 -43l-124 102l34 41q-34 62 -34 143q0 114 57 174t195 60q45 0 80 -6l38 47l124 -102l-23 -29q33 -52 33 -144zM229.5 334q-17.5 -11 -23.5 -33t-6 -61q0 -18 1 -26l104 130q-7 1 -23 1
q-35 0 -52.5 -11zM344 150.5q20 35.5 20 90.5q0 18 -1 26l-113 -142l-1 -3q18 -7 33 -7q42 0 62 35.5z" />
    <glyph glyph-name="ugrave" unicode="&#xf9;" horiz-adv-x="555" 
d="M345 225q0 -40 -27.5 -60.5t-64.5 -20.5q-23 0 -35.5 14t-12.5 41v261h-170v-302q0 -82 43 -125t107 -43q59 0 104 26.5t72 70.5l19 -87h135v460h-170v-235zM338 516h-145l-96 130h183z" />
    <glyph glyph-name="uacute" unicode="&#xfa;" horiz-adv-x="555" 
d="M345 225q0 -40 -27.5 -60.5t-64.5 -20.5q-23 0 -35.5 14t-12.5 41v261h-170v-302q0 -82 43 -125t107 -43q59 0 104 26.5t72 70.5l19 -87h135v460h-170v-235zM442 646l-96 -130h-145l58 130h183z" />
    <glyph glyph-name="ucircumflex" unicode="&#xfb;" horiz-adv-x="555" 
d="M345 225q0 -40 -27.5 -60.5t-64.5 -20.5q-23 0 -35.5 14t-12.5 41v261h-170v-302q0 -82 43 -125t107 -43q59 0 104 26.5t72 70.5l19 -87h135v460h-170v-235zM352.5 614.5q46.5 -15.5 86.5 -24.5l-17 -96q-23 0 -70.5 12.5t-70.5 27.5h-2q-23 -15 -70.5 -27.5t-70.5 -12.5
l-17 96q40 9 86.5 24.5t71.5 29.5h2q25 -14 71.5 -29.5z" />
    <glyph glyph-name="udieresis" unicode="&#xfc;" horiz-adv-x="555" 
d="M345 225q0 -40 -27.5 -60.5t-64.5 -20.5q-23 0 -35.5 14t-12.5 41v261h-170v-302q0 -82 43 -125t107 -43q59 0 104 26.5t72 70.5l19 -87h135v460h-170v-235zM114 622h131v-124h-131v124zM314 622h131v-124h-131v124z" />
    <glyph glyph-name="yacute" unicode="&#xfd;" horiz-adv-x="522" 
d="M313 -44q-25 -60 -65.5 -88t-103.5 -28q-48 0 -103 22v123q23 -10 36 -12.5t34 -2.5q26 0 45 14t33 54l-189 422h166l63 -147l33 -87h4l81 234h175zM433 646l-96 -130h-145l58 130h183z" />
    <glyph glyph-name="thorn" unicode="&#xfe;" horiz-adv-x="601" 
d="M523 414.5q48 -55.5 48 -173.5q0 -108 -50 -179.5t-146 -71.5q-51 0 -92 26t-63 61v-237h-170v620h1v220h168v-313q27 48 74.5 75.5t106.5 27.5q75 0 123 -55.5zM371.5 147.5q19.5 26.5 19.5 94.5q0 45 -19.5 71.5t-60.5 26.5q-40 0 -62.5 -24t-26.5 -66l-1 -30
q4 -39 25.5 -69t67.5 -30q38 0 57.5 26.5z" />
    <glyph glyph-name="ydieresis" unicode="&#xff;" horiz-adv-x="522" 
d="M313 -44q-25 -60 -65.5 -88t-103.5 -28q-48 0 -103 22v123q23 -10 36 -12.5t34 -2.5q26 0 45 14t33 54l-189 422h166l63 -147l33 -87h4l81 234h175zM105 622h131v-124h-131v124zM305 622h131v-124h-131v124z" />
    <glyph glyph-name="Amacron" unicode="&#x100;" horiz-adv-x="626" 
d="M434 0l-29 103h-183l-29 -103h-174l197 640h197l193 -640h-172zM256 226h115l-17 63l-37 151h-9l-35 -151zM184 790h260v-100h-260v100z" />
    <glyph glyph-name="amacron" unicode="&#x101;" horiz-adv-x="522" 
d="M421 417.5q61 -52.5 61 -143.5l-12 -274h-140l-18 77q-34 -43 -68.5 -65t-79.5 -22q-41 0 -71.5 19t-46.5 49t-16 62q0 57 46 93.5t123 52.5l113 24q-8 49 -95 49q-46 0 -93.5 -17t-76.5 -40v144q55 25 104 34.5t108 9.5q101 0 162 -52.5zM293.5 125.5
q20.5 23.5 20.5 67.5v13l-66 -15q-53 -13 -53 -44q0 -21 11.5 -33t30.5 -12q36 0 56.5 23.5zM123 610h260v-100h-260v100z" />
    <glyph glyph-name="Abreve" unicode="&#x102;" horiz-adv-x="626" 
d="M434 0l-29 103h-183l-29 -103h-174l197 640h197l193 -640h-172zM256 226h115l-17 63l-37 151h-9l-35 -151zM436.5 714q-40.5 -38 -122.5 -38t-122.5 38t-42.5 106h116q1 -22 14 -34.5t35 -12.5t35 12.5t14 34.5h116q-2 -68 -42.5 -106z" />
    <glyph glyph-name="abreve" unicode="&#x103;" horiz-adv-x="522" 
d="M421 417.5q61 -52.5 61 -143.5l-12 -274h-140l-18 77q-34 -43 -68.5 -65t-79.5 -22q-41 0 -71.5 19t-46.5 49t-16 62q0 57 46 93.5t123 52.5l113 24q-8 49 -95 49q-46 0 -93.5 -17t-76.5 -40v144q55 25 104 34.5t108 9.5q101 0 162 -52.5zM293.5 125.5
q20.5 23.5 20.5 67.5v13l-66 -15q-53 -13 -53 -44q0 -21 11.5 -33t30.5 -12q36 0 56.5 23.5zM375.5 534q-40.5 -38 -122.5 -38t-122.5 38t-42.5 106h116q1 -22 14 -34.5t35 -12.5t35 12.5t14 34.5h116q-2 -68 -42.5 -106z" />
    <glyph glyph-name="Aogonek" unicode="&#x104;" horiz-adv-x="626" 
d="M504.5 -20.5q-25.5 -11.5 -25.5 -25.5q0 -15 14.5 -23.5t39.5 -8.5q26 0 57 9v-96q-49 -7 -94 -7q-72 0 -110.5 22t-38.5 64q0 67 81 107l-23 82h-183l-29 -103h-174l197 640h197l193 -640h-15q-61 -9 -86.5 -20.5zM256 226h115l-17 63l-37 151h-9l-35 -151z" />
    <glyph glyph-name="aogonek" unicode="&#x105;" horiz-adv-x="522" 
d="M383.5 -20.5q-25.5 -11.5 -25.5 -25.5q0 -15 14.5 -23.5t39.5 -8.5q26 0 57 9v-96q-49 -7 -94 -7q-72 0 -110.5 22t-38.5 64q0 76 97 114l-11 49q-34 -43 -68.5 -65t-79.5 -22q-41 0 -71.5 19t-46.5 49t-16 62q0 57 46 93.5t123 52.5l113 24q-8 49 -95 49
q-46 0 -93.5 -17t-76.5 -40v144q55 25 104 34.5t108 9.5q101 0 162 -52.5t61 -143.5l-12 -274q-61 -9 -86.5 -20.5zM293.5 125.5q20.5 23.5 20.5 67.5v13l-66 -15q-53 -13 -53 -44q0 -21 11.5 -33t30.5 -12q36 0 56.5 23.5z" />
    <glyph glyph-name="Cacute" unicode="&#x106;" horiz-adv-x="586" 
d="M260.5 179.5q44.5 -46.5 128.5 -46.5q47 0 84.5 17t63.5 42v-123q-32 -41 -79.5 -60t-127.5 -19q-77 0 -146 42.5t-111.5 121.5t-42.5 184q0 149 83 230.5t237 81.5q52 0 108.5 -14.5t88.5 -34.5v-143q-53 27 -94 37.5t-86 10.5q-77 0 -114 -43.5t-37 -143.5
q0 -93 44.5 -139.5zM485 826l-96 -130h-145l58 130h183z" />
    <glyph glyph-name="cacute" unicode="&#x107;" horiz-adv-x="466" 
d="M303 341q-56 0 -79.5 -24t-23.5 -79q0 -60 31.5 -90t81.5 -30q31 0 66 8.5t56 26.5l-2 -119q-36 -23 -73.5 -33.5t-98.5 -10.5q-62 0 -115 31t-84.5 88t-31.5 132q0 229 237 229q91 0 174 -29v-138q-64 38 -138 38zM423 646l-96 -130h-145l58 130h183z" />
    <glyph glyph-name="Ccircumflex" unicode="&#x108;" horiz-adv-x="586" 
d="M260.5 179.5q44.5 -46.5 128.5 -46.5q47 0 84.5 17t63.5 42v-123q-32 -41 -79.5 -60t-127.5 -19q-77 0 -146 42.5t-111.5 121.5t-42.5 184q0 149 83 230.5t237 81.5q52 0 108.5 -14.5t88.5 -34.5v-143q-53 27 -94 37.5t-86 10.5q-77 0 -114 -43.5t-37 -143.5
q0 -93 44.5 -139.5zM395.5 794.5q46.5 -15.5 86.5 -24.5l-17 -96q-23 0 -70.5 12.5t-70.5 27.5h-2q-23 -15 -70.5 -27.5t-70.5 -12.5l-17 96q40 9 86.5 24.5t71.5 29.5h2q25 -14 71.5 -29.5z" />
    <glyph glyph-name="ccircumflex" unicode="&#x109;" horiz-adv-x="466" 
d="M303 341q-56 0 -79.5 -24t-23.5 -79q0 -60 31.5 -90t81.5 -30q31 0 66 8.5t56 26.5l-2 -119q-36 -23 -73.5 -33.5t-98.5 -10.5q-62 0 -115 31t-84.5 88t-31.5 132q0 229 237 229q91 0 174 -29v-138q-64 38 -138 38zM333.5 614.5q46.5 -15.5 86.5 -24.5l-17 -96
q-23 0 -70.5 12.5t-70.5 27.5h-2q-23 -15 -70.5 -27.5t-70.5 -12.5l-17 96q40 9 86.5 24.5t71.5 29.5h2q25 -14 71.5 -29.5z" />
    <glyph glyph-name="Cdotaccent" unicode="&#x10a;" horiz-adv-x="586" 
d="M260.5 179.5q44.5 -46.5 128.5 -46.5q47 0 84.5 17t63.5 42v-123q-32 -41 -79.5 -60t-127.5 -19q-77 0 -146 42.5t-111.5 121.5t-42.5 184q0 149 83 230.5t237 81.5q52 0 108.5 -14.5t88.5 -34.5v-143q-53 27 -94 37.5t-86 10.5q-77 0 -114 -43.5t-37 -143.5
q0 -93 44.5 -139.5zM269 794h118v-113h-118v113z" />
    <glyph glyph-name="cdotaccent" unicode="&#x10b;" horiz-adv-x="466" 
d="M303 341q-56 0 -79.5 -24t-23.5 -79q0 -60 31.5 -90t81.5 -30q31 0 66 8.5t56 26.5l-2 -119q-36 -23 -73.5 -33.5t-98.5 -10.5q-62 0 -115 31t-84.5 88t-31.5 132q0 229 237 229q91 0 174 -29v-138q-64 38 -138 38zM207 614h118v-113h-118v113z" />
    <glyph glyph-name="Ccaron" unicode="&#x10c;" horiz-adv-x="586" 
d="M260.5 179.5q44.5 -46.5 128.5 -46.5q47 0 84.5 17t63.5 42v-123q-32 -41 -79.5 -60t-127.5 -19q-77 0 -146 42.5t-111.5 121.5t-42.5 184q0 149 83 230.5t237 81.5q52 0 108.5 -14.5t88.5 -34.5v-143q-53 27 -94 37.5t-86 10.5q-77 0 -114 -43.5t-37 -143.5
q0 -93 44.5 -139.5zM407 690h-170l-55 120l39 20l99 -53h5l99 53l38 -20z" />
    <glyph glyph-name="ccaron" unicode="&#x10d;" horiz-adv-x="466" 
d="M303 341q-56 0 -79.5 -24t-23.5 -79q0 -60 31.5 -90t81.5 -30q31 0 66 8.5t56 26.5l-2 -119q-36 -23 -73.5 -33.5t-98.5 -10.5q-62 0 -115 31t-84.5 88t-31.5 132q0 229 237 229q91 0 174 -29v-138q-64 38 -138 38zM345 510h-170l-55 120l39 20l99 -53h5l99 53l38 -20z
" />
    <glyph glyph-name="Dcaron" unicode="&#x10e;" horiz-adv-x="665" 
d="M327 640q174 0 241 -84t67 -218q0 -96 -38 -172.5t-114 -121t-185 -44.5h-240v640h269zM415.5 190q45.5 57 45.5 142q0 93 -44.5 134t-130.5 41h-53v-374h47q90 0 135.5 57zM439 690h-170l-55 120l39 20l99 -53h5l99 53l38 -20z" />
    <glyph glyph-name="dcaron" unicode="&#x10f;" horiz-adv-x="609" 
d="M586 677h165q12 -52 12 -102q0 -103 -62 -199l-115 41q25 31 39 55t20 52h-59v153zM530 680v-680h-135l-20 66q-22 -32 -57 -54t-82 -22q-66 0 -112.5 34t-70 91t-23.5 126q0 79 25.5 130.5t66 75t89.5 23.5q94 0 149 -69v279h170zM343.5 151q16.5 26 16.5 81
q0 51 -20.5 77.5t-66.5 26.5q-41 0 -57 -28.5t-16 -65.5q0 -67 20 -92t60 -25q47 0 63.5 26z" />
    <glyph glyph-name="Dcroat" unicode="&#x110;" horiz-adv-x="665" 
d="M568 556q67 -84 67 -218q0 -96 -38 -172.5t-114 -121t-185 -44.5h-240v241h-67v130h67v269h269q174 0 241 -84zM415.5 190q45.5 57 45.5 142q0 93 -44.5 134t-130.5 41h-53v-136h68v-130h-68v-108h47q90 0 135.5 57z" />
    <glyph glyph-name="dcroat" unicode="&#x111;" horiz-adv-x="580" 
d="M580 487h-50v-487h-135l-20 66q-22 -32 -57 -54t-82 -22q-66 0 -112.5 34t-70 91t-23.5 126q0 79 25.5 130.5t66 75t89.5 23.5q94 0 149 -69v86h-90v130h90v63h170v-63h50v-130zM343.5 151q16.5 26 16.5 81q0 51 -20.5 77.5t-66.5 26.5q-41 0 -57 -28.5t-16 -65.5
q0 -67 20 -92t60 -25q47 0 63.5 26z" />
    <glyph glyph-name="Emacron" unicode="&#x112;" horiz-adv-x="550" 
d="M233 133v135h243v122h-243v117h283v133h-458v-640h458v133h-283zM157 790h260v-100h-260v100z" />
    <glyph glyph-name="emacron" unicode="&#x113;" horiz-adv-x="502" 
d="M421 416.5q56 -53.5 56 -146.5q0 -34 -9 -75h-268q10 -41 40.5 -59.5t83.5 -18.5q37 0 71 11t59 26l-3 -125q-23 -15 -68.5 -27t-97.5 -12q-120 0 -187.5 67t-67.5 181q0 232 240 232q95 0 151 -53.5zM313 280q0 31 -13.5 46.5t-42.5 15.5q-27 0 -41 -13t-19 -49h116z
M135 610h260v-100h-260v100z" />
    <glyph glyph-name="Edotaccent" unicode="&#x116;" horiz-adv-x="550" 
d="M233 133v135h243v122h-243v117h283v133h-458v-640h458v133h-283zM233 794h118v-113h-118v113z" />
    <glyph glyph-name="edotaccent" unicode="&#x117;" horiz-adv-x="502" 
d="M421 416.5q56 -53.5 56 -146.5q0 -34 -9 -75h-268q10 -41 40.5 -59.5t83.5 -18.5q37 0 71 11t59 26l-3 -125q-23 -15 -68.5 -27t-97.5 -12q-120 0 -187.5 67t-67.5 181q0 232 240 232q95 0 151 -53.5zM313 280q0 31 -13.5 46.5t-42.5 15.5q-27 0 -41 -13t-19 -49h116z
M211 614h118v-113h-118v113z" />
    <glyph glyph-name="Eogonek" unicode="&#x118;" horiz-adv-x="550" 
d="M233 507v-117h243v-122h-243v-135h283v-133h-6q-61 -9 -86.5 -20.5t-25.5 -25.5q0 -15 14.5 -23.5t39.5 -8.5q26 0 57 9v-96q-49 -7 -94 -7q-72 0 -110.5 22t-38.5 64q0 51 46 86h-254v640h458v-133h-283z" />
    <glyph glyph-name="eogonek" unicode="&#x119;" horiz-adv-x="502" 
d="M421 416.5q56 -53.5 56 -146.5q0 -34 -9 -75h-268q10 -41 40.5 -59.5t83.5 -18.5q37 0 71 11t59 26l-3 -125q-18 -12 -54.5 -23t-79.5 -15q-38 -12 -38 -30q0 -15 14.5 -23.5t39.5 -8.5q26 0 57 9v-96q-49 -7 -94 -7q-72 0 -110.5 22t-38.5 64q0 49 41 83q-76 23 -117 84
t-41 150q0 232 240 232q95 0 151 -53.5zM313 280q0 31 -13.5 46.5t-42.5 15.5q-27 0 -41 -13t-19 -49h116z" />
    <glyph glyph-name="Ecaron" unicode="&#x11a;" horiz-adv-x="550" 
d="M233 133v135h243v122h-243v117h283v133h-458v-640h458v133h-283zM371 690h-170l-55 120l39 20l99 -53h5l99 53l38 -20z" />
    <glyph glyph-name="ecaron" unicode="&#x11b;" horiz-adv-x="502" 
d="M421 416.5q56 -53.5 56 -146.5q0 -34 -9 -75h-268q10 -41 40.5 -59.5t83.5 -18.5q37 0 71 11t59 26l-3 -125q-23 -15 -68.5 -27t-97.5 -12q-120 0 -187.5 67t-67.5 181q0 232 240 232q95 0 151 -53.5zM313 280q0 31 -13.5 46.5t-42.5 15.5q-27 0 -41 -13t-19 -49h116z
M349 510h-170l-55 120l39 20l99 -53h5l99 53l38 -20z" />
    <glyph glyph-name="Gcircumflex" unicode="&#x11c;" horiz-adv-x="676" 
d="M627 0h-139l-12 101q-18 -49 -64 -80t-108 -31q-70 0 -133 41.5t-102 120t-39 184.5q0 153 84.5 233.5t251.5 80.5q62 0 133 -15t101 -36v-146q-48 26 -102 40t-101 14q-97 0 -139.5 -42t-42.5 -142q0 -102 34.5 -145t83.5 -43q63 0 91 40.5t28 91.5h-118v102h293v-369z
M438.5 794.5q46.5 -15.5 86.5 -24.5l-17 -96q-23 0 -70.5 12.5t-70.5 27.5h-2q-23 -15 -70.5 -27.5t-70.5 -12.5l-17 96q40 9 86.5 24.5t71.5 29.5h2q25 -14 71.5 -29.5z" />
    <glyph glyph-name="gcircumflex" unicode="&#x11d;" horiz-adv-x="595" 
d="M575 360l-123 -21q35 -8 56 -33t21 -64q0 -63 -49.5 -103t-139.5 -51q-17 -25 -40 -44q29 4 68 4q193 0 193 -106q0 -32 -29 -59.5t-91 -44.5t-156 -17q-90 0 -152.5 17t-97.5 40v109q52 -25 107 -37t143 -12q32 0 63.5 7.5t31.5 21.5q0 11 -19 17t-72 6q-30 0 -69 -5.5
t-66 -13.5l-17 56q67 23 107 60q-93 9 -148.5 58t-55.5 134q0 97 77 139t192 42h266v-100zM233 214.5q17 -23.5 52 -23.5q34 0 51 24t17 57q0 26 -16 42.5t-52 16.5q-37 0 -53 -16.5t-16 -42.5q0 -34 17 -57.5zM381.5 614.5q46.5 -15.5 86.5 -24.5l-17 -96q-23 0 -70.5 12.5
t-70.5 27.5h-2q-23 -15 -70.5 -27.5t-70.5 -12.5l-17 96q40 9 86.5 24.5t71.5 29.5h2q25 -14 71.5 -29.5z" />
    <glyph glyph-name="Gbreve" unicode="&#x11e;" horiz-adv-x="676" 
d="M627 0h-139l-12 101q-18 -49 -64 -80t-108 -31q-70 0 -133 41.5t-102 120t-39 184.5q0 153 84.5 233.5t251.5 80.5q62 0 133 -15t101 -36v-146q-48 26 -102 40t-101 14q-97 0 -139.5 -42t-42.5 -142q0 -102 34.5 -145t83.5 -43q63 0 91 40.5t28 91.5h-118v102h293v-369z
M488.5 714q-40.5 -38 -122.5 -38t-122.5 38t-42.5 106h116q1 -22 14 -34.5t35 -12.5t35 12.5t14 34.5h116q-2 -68 -42.5 -106z" />
    <glyph glyph-name="gbreve" unicode="&#x11f;" horiz-adv-x="595" 
d="M575 360l-123 -21q35 -8 56 -33t21 -64q0 -63 -49.5 -103t-139.5 -51q-17 -25 -40 -44q29 4 68 4q193 0 193 -106q0 -32 -29 -59.5t-91 -44.5t-156 -17q-90 0 -152.5 17t-97.5 40v109q52 -25 107 -37t143 -12q32 0 63.5 7.5t31.5 21.5q0 11 -19 17t-72 6q-30 0 -69 -5.5
t-66 -13.5l-17 56q67 23 107 60q-93 9 -148.5 58t-55.5 134q0 97 77 139t192 42h266v-100zM233 214.5q17 -23.5 52 -23.5q34 0 51 24t17 57q0 26 -16 42.5t-52 16.5q-37 0 -53 -16.5t-16 -42.5q0 -34 17 -57.5zM431.5 534q-40.5 -38 -122.5 -38t-122.5 38t-42.5 106h116
q1 -22 14 -34.5t35 -12.5t35 12.5t14 34.5h116q-2 -68 -42.5 -106z" />
    <glyph glyph-name="Gdotaccent" unicode="&#x120;" horiz-adv-x="676" 
d="M627 0h-139l-12 101q-18 -49 -64 -80t-108 -31q-70 0 -133 41.5t-102 120t-39 184.5q0 153 84.5 233.5t251.5 80.5q62 0 133 -15t101 -36v-146q-48 26 -102 40t-101 14q-97 0 -139.5 -42t-42.5 -142q0 -102 34.5 -145t83.5 -43q63 0 91 40.5t28 91.5h-118v102h293v-369z
M312 794h118v-113h-118v113z" />
    <glyph glyph-name="gdotaccent" unicode="&#x121;" horiz-adv-x="595" 
d="M575 360l-123 -21q35 -8 56 -33t21 -64q0 -63 -49.5 -103t-139.5 -51q-17 -25 -40 -44q29 4 68 4q193 0 193 -106q0 -32 -29 -59.5t-91 -44.5t-156 -17q-90 0 -152.5 17t-97.5 40v109q52 -25 107 -37t143 -12q32 0 63.5 7.5t31.5 21.5q0 11 -19 17t-72 6q-30 0 -69 -5.5
t-66 -13.5l-17 56q67 23 107 60q-93 9 -148.5 58t-55.5 134q0 97 77 139t192 42h266v-100zM233 214.5q17 -23.5 52 -23.5q34 0 51 24t17 57q0 26 -16 42.5t-52 16.5q-37 0 -53 -16.5t-16 -42.5q0 -34 17 -57.5zM255 614h118v-113h-118v113z" />
    <glyph glyph-name="uni0122" unicode="&#x122;" horiz-adv-x="676" 
d="M627 0h-139l-12 101q-18 -49 -64 -80t-108 -31q-70 0 -133 41.5t-102 120t-39 184.5q0 153 84.5 233.5t251.5 80.5q62 0 133 -15t101 -36v-146q-48 26 -102 40t-101 14q-97 0 -139.5 -42t-42.5 -142q0 -102 34.5 -145t83.5 -43q63 0 91 40.5t28 91.5h-118v102h293v-369z
M248 -47h165q12 -52 12 -102q0 -103 -62 -199l-115 41q25 31 39 55t20 52h-59v153z" />
    <glyph glyph-name="uni0123" unicode="&#x123;" horiz-adv-x="595" 
d="M575 360l-123 -21q35 -8 56 -33t21 -64q0 -63 -49.5 -103t-139.5 -51q-17 -25 -40 -44q29 4 68 4q193 0 193 -106q0 -32 -29 -59.5t-91 -44.5t-156 -17q-90 0 -152.5 17t-97.5 40v109q52 -25 107 -37t143 -12q32 0 63.5 7.5t31.5 21.5q0 11 -19 17t-72 6q-30 0 -69 -5.5
t-66 -13.5l-17 56q67 23 107 60q-93 9 -148.5 58t-55.5 134q0 97 77 139t192 42h266v-100zM233 214.5q17 -23.5 52 -23.5q34 0 51 24t17 57q0 26 -16 42.5t-52 16.5q-37 0 -53 -16.5t-16 -42.5q0 -34 17 -57.5zM286 660h145l-58 -130h-183z" />
    <glyph glyph-name="Hcircumflex" unicode="&#x124;" horiz-adv-x="680" 
d="M622 640h-175v-248h-214v248h-175v-640h175v258h214v-258h175v640zM412.5 794.5q46.5 -15.5 86.5 -24.5l-17 -96q-23 0 -70.5 12.5t-70.5 27.5h-2q-23 -15 -70.5 -27.5t-70.5 -12.5l-17 96q40 9 86.5 24.5t71.5 29.5h2q25 -14 71.5 -29.5z" />
    <glyph glyph-name="hcircumflex" unicode="&#x125;" horiz-adv-x="585" 
d="M502.5 428q42.5 -42 42.5 -125v-303h-170v250q0 33 -15.5 49t-51.5 16q-35 0 -56.5 -18t-25.5 -52q-1 -5 -1 -16v-229h-170v680h170v-313q26 54 64 78.5t100 24.5q71 0 113.5 -42zM214.5 834.5q46.5 -15.5 86.5 -24.5l-17 -96q-23 0 -70.5 12.5t-70.5 27.5h-2
q-23 -15 -70.5 -27.5t-70.5 -12.5l-17 96q40 9 86.5 24.5t71.5 29.5h2q25 -14 71.5 -29.5z" />
    <glyph glyph-name="Hbar" unicode="&#x126;" horiz-adv-x="680" 
d="M685 583v-130h-63v-453h-175v258h-214v-258h-175v453h-63v130h63v57h175v-66h214v66h175v-57h63zM233 392h214v70h-214v-70z" />
    <glyph glyph-name="hbar" unicode="&#x127;" horiz-adv-x="585" 
d="M502.5 428q42.5 -42 42.5 -125v-303h-170v250q0 33 -15.5 49t-51.5 16q-35 0 -56.5 -18t-25.5 -52q-1 -5 -1 -16v-229h-170v494h-66v130h66v56h170v-56h74v-130h-74v-127q26 54 64 78.5t100 24.5q71 0 113.5 -42z" />
    <glyph glyph-name="Imacron" unicode="&#x12a;" horiz-adv-x="291" 
d="M233 640h-175v-640h175v640zM16 790h260v-100h-260v100z" />
    <glyph glyph-name="imacron" unicode="&#x12b;" horiz-adv-x="270" 
d="M50 460v-460h170v460h-170zM4 610h260v-100h-260v100z" />
    <glyph glyph-name="Iogonek" unicode="&#x12e;" horiz-adv-x="291" 
d="M233 640v-640h-2q-61 -9 -86.5 -20.5t-25.5 -25.5q0 -15 14.5 -23.5t39.5 -8.5q26 0 57 9v-96q-49 -7 -94 -7q-72 0 -110.5 22t-38.5 64q0 63 71 102v624h175z" />
    <glyph glyph-name="iogonek" unicode="&#x12f;" horiz-adv-x="270" 
d="M198 614v-113h-118v113h118zM220 460v-460h-4q-61 -9 -86.5 -20.5t-25.5 -25.5q0 -15 14.5 -23.5t39.5 -8.5t57 9v-96q-49 -7 -94 -7q-72 0 -110.5 22t-38.5 64q0 68 78 105v441h170z" />
    <glyph glyph-name="Idotaccent" unicode="&#x130;" horiz-adv-x="291" 
d="M233 640h-175v-640h175v640zM92 794h118v-113h-118v113z" />
    <glyph glyph-name="dotlessi" unicode="&#x131;" horiz-adv-x="270" 
d="M50 460v-460h170v460h-170z" />
    <glyph glyph-name="Jcircumflex" unicode="&#x134;" horiz-adv-x="383" 
d="M335 154q0 -50 -25 -88.5t-65.5 -59.5t-85.5 -21q-77 0 -144 21v137q9 -3 30 -6t42 -3q74 0 74 66v440h174v-486zM320.5 794.5q46.5 -15.5 86.5 -24.5l-17 -96q-23 0 -70.5 12.5t-70.5 27.5h-2q-23 -15 -70.5 -27.5t-70.5 -12.5l-17 96q40 9 86.5 24.5t71.5 29.5h2
q25 -14 71.5 -29.5z" />
    <glyph glyph-name="jcircumflex" unicode="&#x135;" horiz-adv-x="283" 
d="M240 460v-468q0 -70 -43.5 -116t-123.5 -46q-39 0 -63 8t-52 24v108q4 -1 14.5 -5.5t24 -6.5t29.5 -2q19 0 31.5 13t12.5 40v451h170zM226.5 614.5q46.5 -15.5 86.5 -24.5l-17 -96q-23 0 -70.5 12.5t-70.5 27.5h-2q-23 -15 -70.5 -27.5t-70.5 -12.5l-17 96
q40 9 86.5 24.5t71.5 29.5h2q25 -14 71.5 -29.5z" />
    <glyph glyph-name="uni0136" unicode="&#x136;" horiz-adv-x="641" 
d="M641 640l-228 -315l228 -325h-210l-198 310v-310h-175v640h175v-310l208 310h200zM243 -47h165q12 -52 12 -102q0 -103 -62 -199l-115 41q25 31 39 55t20 52h-59v153z" />
    <glyph glyph-name="uni0137" unicode="&#x137;" horiz-adv-x="556" 
d="M396 242l160 -242h-201l-134 214h-1v-214h-170v680h170v-406l131 186h202zM168 -47h165q12 -52 12 -102q0 -103 -62 -199l-115 41q25 31 39 55t20 52h-59v153z" />
    <glyph glyph-name="Lacute" unicode="&#x139;" horiz-adv-x="480" 
d="M461 0h-403v640h175v-507h228v-133zM308 826l-96 -130h-145l58 130h183z" />
    <glyph glyph-name="lacute" unicode="&#x13a;" horiz-adv-x="271" 
d="M50 680h170l1 -680h-170zM253 826l-96 -130h-145l58 130h183z" />
    <glyph glyph-name="uni013B" unicode="&#x13b;" horiz-adv-x="480" 
d="M461 0h-403v640h175v-507h228v-133zM196 -47h165q12 -52 12 -102q0 -103 -62 -199l-115 41q25 31 39 55t20 52h-59v153z" />
    <glyph glyph-name="uni013C" unicode="&#x13c;" horiz-adv-x="271" 
d="M50 680h170l1 -680h-170zM46 -47h165q12 -52 12 -102q0 -103 -62 -199l-115 41q25 31 39 55t20 52h-59v153z" />
    <glyph glyph-name="Lcaron" unicode="&#x13d;" horiz-adv-x="480" 
d="M461 0h-403v640h175v-507h228v-133z" />
    <glyph glyph-name="lcaron" unicode="&#x13e;" horiz-adv-x="271" 
d="M50 680h170l1 -680h-170z" />
    <glyph glyph-name="Ldot" unicode="&#x13f;" horiz-adv-x="527" 
d="M333 258v110h100v-110h-100zM461 0h-403v640h175v-507h228v-133z" />
    <glyph glyph-name="ldot" unicode="&#x140;" horiz-adv-x="271" 
d="M50 680h170l1 -680h-170zM253 269v110h100v-110h-100z" />
    <glyph glyph-name="Lslash" unicode="&#x141;" horiz-adv-x="480" 
d="M233 133h228v-133h-403v206l-52 -18v133l52 18v301h175v-239l58 21v-133l-58 -21v-135z" />
    <glyph glyph-name="lslash" unicode="&#x142;" horiz-adv-x="271" 
d="M281 396v-133l-60 -21v-242h-170v181l-55 -19v133l55 19l-1 366h170v-305z" />
    <glyph glyph-name="Nacute" unicode="&#x143;" horiz-adv-x="689" 
d="M631 640v-640h-187l-221 386h-10l20 -262v-124h-175v640h187l223 -386h11l-23 262l1 124h174zM513 826l-96 -130h-145l58 130h183z" />
    <glyph glyph-name="nacute" unicode="&#x144;" horiz-adv-x="580" 
d="M220 224q0 41 22 63.5t61 22.5q36 0 51.5 -16t15.5 -49v-245h170v298q0 84 -42.5 128t-113.5 44q-67 0 -106 -28.5t-67 -94.5l-11 113h-150v-460h170v224zM442 646l-96 -130h-145l58 130h183z" />
    <glyph glyph-name="uni0145" unicode="&#x145;" horiz-adv-x="689" 
d="M631 640v-640h-187l-221 386h-10l20 -262v-124h-175v640h187l223 -386h11l-23 262l1 124h174zM261 -47h165q12 -52 12 -102q0 -103 -62 -199l-115 41q25 31 39 55t20 52h-59v153z" />
    <glyph glyph-name="uni0146" unicode="&#x146;" horiz-adv-x="580" 
d="M220 224q0 41 22 63.5t61 22.5q36 0 51.5 -16t15.5 -49v-245h170v298q0 84 -42.5 128t-113.5 44q-67 0 -106 -28.5t-67 -94.5l-11 113h-150v-460h170v224zM250 -47h165q12 -52 12 -102q0 -103 -62 -199l-115 41q25 31 39 55t20 52h-59v153z" />
    <glyph glyph-name="Ncaron" unicode="&#x147;" horiz-adv-x="689" 
d="M631 640v-640h-187l-221 386h-10l20 -262v-124h-175v640h187l223 -386h11l-23 262l1 124h174zM435 690h-170l-55 120l39 20l99 -53h5l99 53l38 -20z" />
    <glyph glyph-name="ncaron" unicode="&#x148;" horiz-adv-x="580" 
d="M220 224q0 41 22 63.5t61 22.5q36 0 51.5 -16t15.5 -49v-245h170v298q0 84 -42.5 128t-113.5 44q-67 0 -106 -28.5t-67 -94.5l-11 113h-150v-460h170v224zM364 510h-170l-55 120l39 20l99 -53h5l99 53l38 -20z" />
    <glyph glyph-name="Eng" unicode="&#x14a;" horiz-adv-x="689" 
d="M631 640v-649q0 -43 -20.5 -80t-56.5 -59.5t-80 -22.5q-41 0 -68 9t-38 23v111q28 -14 45 -14t24.5 9.5t8.5 32.5h-2l-221 386h-10l20 -262v-124h-175v640h187l223 -386h11l-23 262l1 124h174z" />
    <glyph glyph-name="eng" unicode="&#x14b;" horiz-adv-x="580" 
d="M497.5 426q42.5 -44 42.5 -128v-306q0 -68 -39.5 -115t-105.5 -47q-41 0 -67.5 9t-37.5 23v108q28 -14 46 -14q19 0 26.5 12t7.5 41v236q0 33 -15.5 49t-51.5 16q-39 0 -61 -22.5t-22 -63.5v-224h-170v460h150l11 -113q28 66 67 94.5t106 28.5q71 0 113.5 -44z" />
    <glyph glyph-name="Omacron" unicode="&#x14c;" horiz-adv-x="687" 
d="M68.5 156.5q38.5 -78.5 109.5 -122.5t165 -44t165.5 46t110 127.5t38.5 185.5q0 99 -40 166.5t-111 101t-163 33.5q-149 0 -231 -79t-82 -236q0 -100 38.5 -178.5zM225 430.5q10 36.5 38 56t80 19.5q76 0 103 -42t27 -132q0 -96 -34 -146.5t-96 -50.5q-57 0 -92.5 52
t-35.5 148q0 59 10 95.5zM213 790h260v-100h-260v100z" />
    <glyph glyph-name="omacron" unicode="&#x14d;" horiz-adv-x="564" 
d="M87 415q-57 -60 -57 -174q0 -65 24 -123t80.5 -95.5t147.5 -37.5t147.5 37.5t80.5 95.5t24 123q0 114 -57 174t-195 60t-195 -60zM220 150q-20 35 -20 90q0 39 6 61t23.5 33t52.5 11t52.5 -11t23.5 -32.5t6 -60.5q0 -55 -20 -90.5t-62 -35.5t-62 35zM152 610h260v-100
h-260v100z" />
    <glyph glyph-name="Ohungarumlaut" unicode="&#x150;" horiz-adv-x="687" 
d="M68.5 156.5q38.5 -78.5 109.5 -122.5t165 -44t165.5 46t110 127.5t38.5 185.5q0 99 -40 166.5t-111 101t-163 33.5q-149 0 -231 -79t-82 -236q0 -100 38.5 -178.5zM225 430.5q10 36.5 38 56t80 19.5q76 0 103 -42t27 -132q0 -96 -34 -146.5t-96 -50.5q-57 0 -92.5 52
t-35.5 148q0 59 10 95.5zM367 850l-64 -150h-97l8 150h153zM558 850l-64 -150h-97l8 150h153z" />
    <glyph glyph-name="ohungarumlaut" unicode="&#x151;" horiz-adv-x="564" 
d="M87 415q-57 -60 -57 -174q0 -65 24 -123t80.5 -95.5t147.5 -37.5t147.5 37.5t80.5 95.5t24 123q0 114 -57 174t-195 60t-195 -60zM220 150q-20 35 -20 90q0 39 6 61t23.5 33t52.5 11t52.5 -11t23.5 -32.5t6 -60.5q0 -55 -20 -90.5t-62 -35.5t-62 35zM306 670l-64 -150
h-97l8 150h153zM497 670l-64 -150h-97l8 150h153z" />
    <glyph glyph-name="OE" unicode="&#x152;" horiz-adv-x="799" 
d="M569 507v-127h156v-102h-156v-145h196v-133h-398q-109 0 -185 44.5t-114 121t-38 172.5q0 134 67 218t241 84h427v-133h-196zM393 507h-12q-85 0 -125.5 -40.5t-40.5 -134.5q0 -88 40.5 -143.5t130.5 -55.5h7v374z" />
    <glyph glyph-name="oe" unicode="&#x153;" horiz-adv-x="836" 
d="M755 421q56 -54 56 -149q0 -36 -9 -77h-269q10 -44 40.5 -63.5t84.5 -19.5q37 0 71 11t59 26l-3 -125q-23 -15 -68.5 -27t-97.5 -12q-103 0 -172 50q-65 -50 -165 -50q-91 0 -147.5 37.5t-80.5 95.5t-24 123q0 114 57 174t195 60q106 0 166 -37q61 37 156 37t151 -54z
M634.5 331q-12.5 16 -39.5 16q-33 0 -45.5 -15t-17.5 -52h115q0 35 -12.5 51zM336.5 150.5q17.5 35.5 17.5 90.5q0 57 -13.5 80.5t-58.5 23.5t-58.5 -23.5t-13.5 -81.5q0 -55 17.5 -90t54.5 -35t54.5 35.5z" />
    <glyph glyph-name="Racute" unicode="&#x154;" horiz-adv-x="608" 
d="M621 0h-211l-160 241h-17v-241h-175v641h334q102 0 154.5 -48t52.5 -130q0 -80 -43 -136.5t-114 -69.5zM310 345q61 0 86 20.5t25 72.5q0 37 -20 54t-64 17h-104v-159q50 -5 77 -5zM496 826l-96 -130h-145l58 130h183z" />
    <glyph glyph-name="racute" unicode="&#x155;" horiz-adv-x="403" 
d="M281.5 443.5q42.5 31.5 101.5 25.5v-163q-38 6 -64 6q-55 0 -77 -26t-22 -81v-205h-170v460h150l14 -105q25 57 67.5 88.5zM371 646l-96 -130h-145l58 130h183z" />
    <glyph glyph-name="uni0156" unicode="&#x156;" horiz-adv-x="641" 
d="M621 0h-211l-160 241h-17v-241h-175v641h334q102 0 154.5 -48t52.5 -130q0 -80 -43 -136.5t-114 -69.5zM310 345q61 0 86 20.5t25 72.5q0 37 -20 54t-64 17h-104v-159q50 -5 77 -5zM281 -47h165q12 -52 12 -102q0 -103 -62 -199l-115 41q25 31 39 55t20 52h-59v153z" />
    <glyph glyph-name="uni0157" unicode="&#x157;" horiz-adv-x="403" 
d="M281.5 443.5q42.5 31.5 101.5 25.5v-163q-38 6 -64 6q-55 0 -77 -26t-22 -81v-205h-170v460h150l14 -105q25 57 67.5 88.5zM43 -47h165q12 -52 12 -102q0 -103 -62 -199l-115 41q25 31 39 55t20 52h-59v153z" />
    <glyph glyph-name="Rcaron" unicode="&#x158;" horiz-adv-x="641" 
d="M621 0h-211l-160 241h-17v-241h-175v641h334q102 0 154.5 -48t52.5 -130q0 -80 -43 -136.5t-114 -69.5zM310 345q61 0 86 20.5t25 72.5q0 37 -20 54t-64 17h-104v-159q50 -5 77 -5zM388 690h-170l-55 120l39 20l99 -53h5l99 53l38 -20z" />
    <glyph glyph-name="rcaron" unicode="&#x159;" horiz-adv-x="403" 
d="M281.5 443.5q42.5 31.5 101.5 25.5v-163q-38 6 -64 6q-55 0 -77 -26t-22 -81v-205h-170v460h150l14 -105q25 57 67.5 88.5zM293 510h-170l-55 120l39 20l99 -53h5l99 53l38 -20z" />
    <glyph glyph-name="Sacute" unicode="&#x15a;" horiz-adv-x="529" 
d="M313.5 144q23.5 13 23.5 39q0 22 -15.5 35t-56.5 30l-85 35q-78 32 -119 75t-41 108q0 92 66 138t178 46q61 0 110.5 -9.5t104.5 -26.5v-147q-49 18 -106 27t-104 9q-77 0 -77 -42q0 -16 15 -28t48 -26l132 -54q59 -24 90.5 -65.5t31.5 -108.5q0 -57 -32 -100t-86 -66
t-119 -23q-148 0 -241 60l-1 142q41 -26 105.5 -43.5t116.5 -17.5q38 0 61.5 13zM461 826l-96 -130h-145l58 130h183z" />
    <glyph glyph-name="sacute" unicode="&#x15b;" horiz-adv-x="449" 
d="M123 128q56 -12 104 -12t48 21q0 9 -6 14.5t-22 9.5l-72 17q-86 20 -120.5 60.5t-34.5 87.5q0 72 55.5 108t159.5 36q43 0 89 -6.5t84 -16.5v-141q-42 16 -91 27t-89 11q-20 0 -29 -5t-9 -16q0 -8 9 -15.5t35 -14.5l81 -21q59 -15 91.5 -49t32.5 -85q0 -64 -51.5 -106
t-151.5 -42q-132 0 -200 34v136q31 -20 87 -32zM426 646l-96 -130h-145l58 130h183z" />
    <glyph glyph-name="Scircumflex" unicode="&#x15c;" horiz-adv-x="529" 
d="M313.5 144q23.5 13 23.5 39q0 22 -15.5 35t-56.5 30l-85 35q-78 32 -119 75t-41 108q0 92 66 138t178 46q61 0 110.5 -9.5t104.5 -26.5v-147q-49 18 -106 27t-104 9q-77 0 -77 -42q0 -16 15 -28t48 -26l132 -54q59 -24 90.5 -65.5t31.5 -108.5q0 -57 -32 -100t-86 -66
t-119 -23q-148 0 -241 60l-1 142q41 -26 105.5 -43.5t116.5 -17.5q38 0 61.5 13zM340.5 804.5q46.5 -15.5 86.5 -24.5l-17 -96q-23 0 -70.5 12.5t-70.5 27.5h-2q-23 -15 -70.5 -27.5t-70.5 -12.5l-17 96q40 9 86.5 24.5t71.5 29.5h2q25 -14 71.5 -29.5z" />
    <glyph glyph-name="scircumflex" unicode="&#x15d;" horiz-adv-x="449" 
d="M123 128q56 -12 104 -12t48 21q0 9 -6 14.5t-22 9.5l-72 17q-86 20 -120.5 60.5t-34.5 87.5q0 72 55.5 108t159.5 36q43 0 89 -6.5t84 -16.5v-141q-42 16 -91 27t-89 11q-20 0 -29 -5t-9 -16q0 -8 9 -15.5t35 -14.5l81 -21q59 -15 91.5 -49t32.5 -85q0 -64 -51.5 -106
t-151.5 -42q-132 0 -200 34v136q31 -20 87 -32zM306.5 614.5q46.5 -15.5 86.5 -24.5l-17 -96q-23 0 -70.5 12.5t-70.5 27.5h-2q-23 -15 -70.5 -27.5t-70.5 -12.5l-17 96q40 9 86.5 24.5t71.5 29.5h2q25 -14 71.5 -29.5z" />
    <glyph glyph-name="Scedilla" unicode="&#x15e;" horiz-adv-x="529" 
d="M460.5 60.5q-48.5 -48.5 -125.5 -64.5l-39 -39q41 -7 58.5 -20t17.5 -32q0 -9 -3 -18q-4 -14 -23.5 -31t-54 -29t-81.5 -12q-35 0 -71 7v62q34 -8 54 -8q25 0 40.5 7.5t15.5 15.5q0 9 -18 17t-55 13l-4 13l46 50q-111 9 -187 58l-1 142q41 -26 105.5 -43.5t116.5 -17.5
q38 0 61.5 13t23.5 39q0 22 -15.5 35t-56.5 30l-85 35q-78 32 -119 75t-41 108q0 92 66 138t178 46q61 0 110.5 -9.5t104.5 -26.5v-147q-49 18 -106 27t-104 9q-77 0 -77 -42q0 -16 15 -28t48 -26l132 -54q59 -24 90.5 -65.5t31.5 -108.5q0 -70 -48.5 -118.5z" />
    <glyph glyph-name="scedilla" unicode="&#x15f;" horiz-adv-x="449" 
d="M396.5 39.5q-42.5 -40.5 -124.5 -47.5l-35 -35q41 -7 58.5 -20t17.5 -32q0 -9 -3 -18q-4 -14 -23.5 -31t-54 -29t-81.5 -12q-35 0 -71 7v62q34 -8 54 -8q25 0 40.5 7.5t15.5 15.5q0 9 -18 17t-55 13l-4 13l47 51q-78 8 -124 31v136q31 -20 87 -32t104 -12t48 21
q0 9 -6 14.5t-22 9.5l-72 17q-86 20 -120.5 60.5t-34.5 87.5q0 72 55.5 108t159.5 36q43 0 89 -6.5t84 -16.5v-141q-42 16 -91 27t-89 11q-20 0 -29 -5t-9 -16q0 -8 9 -15.5t35 -14.5l81 -21q59 -15 91.5 -49t32.5 -85q0 -58 -42.5 -98.5z" />
    <glyph glyph-name="Scaron" unicode="&#x160;" horiz-adv-x="529" 
d="M313.5 144q23.5 13 23.5 39q0 22 -15.5 35t-56.5 30l-85 35q-78 32 -119 75t-41 108q0 92 66 138t178 46q61 0 110.5 -9.5t104.5 -26.5v-147q-49 18 -106 27t-104 9q-77 0 -77 -42q0 -16 15 -28t48 -26l132 -54q59 -24 90.5 -65.5t31.5 -108.5q0 -57 -32 -100t-86 -66
t-119 -23q-148 0 -241 60l-1 142q41 -26 105.5 -43.5t116.5 -17.5q38 0 61.5 13zM353 690h-170l-55 120l39 20l99 -53h5l99 53l38 -20z" />
    <glyph glyph-name="scaron" unicode="&#x161;" horiz-adv-x="449" 
d="M123 128q56 -12 104 -12t48 21q0 9 -6 14.5t-22 9.5l-72 17q-86 20 -120.5 60.5t-34.5 87.5q0 72 55.5 108t159.5 36q43 0 89 -6.5t84 -16.5v-141q-42 16 -91 27t-89 11q-20 0 -29 -5t-9 -16q0 -8 9 -15.5t35 -14.5l81 -21q59 -15 91.5 -49t32.5 -85q0 -64 -51.5 -106
t-151.5 -42q-132 0 -200 34v136q31 -20 87 -32zM318 510h-170l-55 120l39 20l99 -53h5l99 53l38 -20z" />
    <glyph glyph-name="uni0162" unicode="&#x162;" horiz-adv-x="549" 
d="M324 0l-26 -26q41 -7 58.5 -20t17.5 -32q0 -9 -3 -18q-4 -14 -23.5 -31t-54 -29t-81.5 -12q-35 0 -71 7v62q34 -8 54 -8q25 0 40.5 7.5t15.5 15.5q0 9 -18 17t-55 13l-4 13l37 41h-28v507h-154v133h482v-133h-154v-507h-33z" />
    <glyph glyph-name="uni0163" unicode="&#x163;" horiz-adv-x="459" 
d="M278 340v-159q0 -30 12.5 -41t41.5 -11q41 0 86 17v-121q-24 -14 -77 -26l-42 -42q41 -7 58.5 -20t17.5 -32q0 -9 -3 -18q-4 -14 -23.5 -31t-54 -29t-81.5 -12q-35 0 -71 7v62q34 -8 54 -8q25 0 40.5 7.5t15.5 15.5q0 9 -18 17t-55 13l-4 13l47 52q-114 21 -114 148v198
h-93v83q60 31 92.5 64t63.5 89h107v-116h151v-120h-151z" />
    <glyph glyph-name="Tcaron" unicode="&#x164;" horiz-adv-x="549" 
d="M511 640v-133h-154v-507h-174v507h-154v133h482zM356 690h-170l-55 120l39 20l99 -53h5l99 53l38 -20z" />
    <glyph glyph-name="tcaron" unicode="&#x165;" horiz-adv-x="459" 
d="M15 423q60 31 92.5 64t63.5 89h107v-116h151v-120h-151v-159q0 -30 12.5 -41t41.5 -11q41 0 86 17v-121q-21 -13 -67 -24t-83 -11q-82 0 -121 40t-39 112v198h-93v83zM307 626h-170l-55 120l39 20l99 -53h5l99 53l38 -20z" />
    <glyph glyph-name="Tbar" unicode="&#x166;" horiz-adv-x="549" 
d="M511 507h-154v-122h70v-130h-70v-255h-174v255h-66v130h66v122h-154v133h482v-133z" />
    <glyph glyph-name="tbar" unicode="&#x167;" horiz-adv-x="459" 
d="M278 340v-28h63v-130h-63v-1q0 -30 12.5 -41t41.5 -11q41 0 86 17v-121q-21 -13 -67 -24t-83 -11q-82 0 -121 40t-39 112v40h-77v130h77v28h-93v83q60 31 92.5 64t63.5 89h107v-116h151v-120h-151z" />
    <glyph glyph-name="Umacron" unicode="&#x16a;" horiz-adv-x="650" 
d="M402.5 158q-23.5 -24 -77.5 -24t-77.5 24t-23.5 91l-1 392h-175l1 -399q0 -118 73.5 -185t202.5 -67t202.5 67t73.5 185l1 399h-175l-1 -392q0 -67 -23.5 -91zM195 790h260v-100h-260v100z" />
    <glyph glyph-name="umacron" unicode="&#x16b;" horiz-adv-x="555" 
d="M345 225q0 -40 -27.5 -60.5t-64.5 -20.5q-23 0 -35.5 14t-12.5 41v261h-170v-302q0 -82 43 -125t107 -43q59 0 104 26.5t72 70.5l19 -87h135v460h-170v-235zM150 610h260v-100h-260v100z" />
    <glyph glyph-name="Ubreve" unicode="&#x16c;" horiz-adv-x="650" 
d="M402.5 158q-23.5 -24 -77.5 -24t-77.5 24t-23.5 91l-1 392h-175l1 -399q0 -118 73.5 -185t202.5 -67t202.5 67t73.5 185l1 399h-175l-1 -392q0 -67 -23.5 -91zM447.5 714q-40.5 -38 -122.5 -38t-122.5 38t-42.5 106h116q1 -22 14 -34.5t35 -12.5t35 12.5t14 34.5h116
q-2 -68 -42.5 -106z" />
    <glyph glyph-name="ubreve" unicode="&#x16d;" horiz-adv-x="555" 
d="M345 225q0 -40 -27.5 -60.5t-64.5 -20.5q-23 0 -35.5 14t-12.5 41v261h-170v-302q0 -82 43 -125t107 -43q59 0 104 26.5t72 70.5l19 -87h135v460h-170v-235zM402.5 534q-40.5 -38 -122.5 -38t-122.5 38t-42.5 106h116q1 -22 14 -34.5t35 -12.5t35 12.5t14 34.5h116
q-2 -68 -42.5 -106z" />
    <glyph glyph-name="Uring" unicode="&#x16e;" horiz-adv-x="650" 
d="M402.5 158q-23.5 -24 -77.5 -24t-77.5 24t-23.5 91l-1 392h-175l1 -399q0 -118 73.5 -185t202.5 -67t202.5 67t73.5 185l1 399h-175l-1 -392q0 -67 -23.5 -91zM411.5 895q-33.5 30 -86.5 30t-86.5 -30t-33.5 -81q0 -52 35 -84.5t85 -32.5q51 0 85.5 33t34.5 84t-33.5 81z
M347 787.5q-9 -10.5 -22 -10.5t-22 10.5t-9 25.5t8 23.5t23 8.5t23 -8.5t8 -23.5t-9 -25.5z" />
    <glyph glyph-name="uring" unicode="&#x16f;" horiz-adv-x="555" 
d="M345 225q0 -40 -27.5 -60.5t-64.5 -20.5q-23 0 -35.5 14t-12.5 41v261h-170v-302q0 -82 43 -125t107 -43q59 0 104 26.5t72 70.5l19 -87h135v460h-170v-235zM366.5 715q-33.5 30 -86.5 30t-86.5 -30t-33.5 -81q0 -52 35 -84.5t85 -32.5q51 0 85.5 33t34.5 84t-33.5 81z
M302 607.5q-9 -10.5 -22 -10.5t-22 10.5t-9 25.5t8 23.5t23 8.5t23 -8.5t8 -23.5t-9 -25.5z" />
    <glyph glyph-name="Uhungarumlaut" unicode="&#x170;" horiz-adv-x="650" 
d="M402.5 158q-23.5 -24 -77.5 -24t-77.5 24t-23.5 91l-1 392h-175l1 -399q0 -118 73.5 -185t202.5 -67t202.5 67t73.5 185l1 399h-175l-1 -392q0 -67 -23.5 -91zM349 850l-64 -150h-97l8 150h153zM540 850l-64 -150h-97l8 150h153z" />
    <glyph glyph-name="uhungarumlaut" unicode="&#x171;" horiz-adv-x="555" 
d="M345 225q0 -40 -27.5 -60.5t-64.5 -20.5q-23 0 -35.5 14t-12.5 41v261h-170v-302q0 -82 43 -125t107 -43q59 0 104 26.5t72 70.5l19 -87h135v460h-170v-235zM304 670l-64 -150h-97l8 150h153zM495 670l-64 -150h-97l8 150h153z" />
    <glyph glyph-name="Uogonek" unicode="&#x172;" horiz-adv-x="650" 
d="M602 641l-1 -399q0 -80 -34.5 -137.5t-98.5 -86.5l7 -5l-35 -6q-24 -7 -42 -11q-35 -11 -35 -29q0 -15 14.5 -23.5t39.5 -8.5q26 0 57 9v-96q-49 -7 -94 -7q-72 0 -110.5 22t-38.5 64q0 39 26 68q-99 17 -153.5 81t-54.5 166l-1 399h175l1 -392q0 -67 23.5 -91t77.5 -24
t77.5 24t23.5 91l1 392h175z" />
    <glyph glyph-name="uogonek" unicode="&#x173;" horiz-adv-x="555" 
d="M428.5 -20.5q-25.5 -11.5 -25.5 -25.5q0 -15 14.5 -23.5t39.5 -8.5q26 0 57 9v-96q-49 -7 -94 -7q-72 0 -110.5 22t-38.5 64q0 77 102 116l-12 57q-27 -44 -72 -70.5t-104 -26.5q-64 0 -107 43t-43 125v302h170v-261q0 -27 12.5 -41t35.5 -14q37 0 64.5 20.5t27.5 60.5
v235h170v-460q-61 -9 -86.5 -20.5z" />
    <glyph glyph-name="Wcircumflex" unicode="&#x174;" horiz-adv-x="876" 
d="M198 640l34 -241l25 -145h17l46 160l62 227h112l62 -227l46 -171h17l25 156l34 241h190l-151 -640h-185l-52 182l-34 137h-16l-34 -137l-52 -182h-185l-151 640h190zM504.5 794.5q46.5 -15.5 86.5 -24.5l-17 -96q-23 0 -70.5 12.5t-70.5 27.5h-2q-23 -15 -70.5 -27.5
t-70.5 -12.5l-17 96q40 9 86.5 24.5t71.5 29.5h2q25 -14 71.5 -29.5z" />
    <glyph glyph-name="wcircumflex" unicode="&#x175;" horiz-adv-x="844" 
d="M399 212l-73 -212h-195l-121 460h179l37 -219l7 -87h4l24 87l75 219h182l66 -219l23 -87h4l9 87l35 219h179l-120 -460h-206l-62 212l-21 92h-4zM495.5 614.5q46.5 -15.5 86.5 -24.5l-17 -96q-23 0 -70.5 12.5t-70.5 27.5h-2q-23 -15 -70.5 -27.5t-70.5 -12.5l-17 96
q40 9 86.5 24.5t71.5 29.5h2q25 -14 71.5 -29.5z" />
    <glyph glyph-name="Ycircumflex" unicode="&#x176;" horiz-adv-x="623" 
d="M351 488l70 152h193l-215 -431v-209h-175v209l-215 431h193l70 -152l34 -97h11zM388.5 794.5q46.5 -15.5 86.5 -24.5l-17 -96q-23 0 -70.5 12.5t-70.5 27.5h-2q-23 -15 -70.5 -27.5t-70.5 -12.5l-17 96q40 9 86.5 24.5t71.5 29.5h2q25 -14 71.5 -29.5z" />
    <glyph glyph-name="ycircumflex" unicode="&#x177;" horiz-adv-x="522" 
d="M313 -44q-25 -60 -65.5 -88t-103.5 -28q-48 0 -103 22v123q23 -10 36 -12.5t34 -2.5q26 0 45 14t33 54l-189 422h166l63 -147l33 -87h4l81 234h175zM343.5 614.5q46.5 -15.5 86.5 -24.5l-17 -96q-23 0 -70.5 12.5t-70.5 27.5h-2q-23 -15 -70.5 -27.5t-70.5 -12.5l-17 96
q40 9 86.5 24.5t71.5 29.5h2q25 -14 71.5 -29.5z" />
    <glyph glyph-name="Ydieresis" unicode="&#x178;" horiz-adv-x="623" 
d="M351 488l70 152h193l-215 -431v-209h-175v209l-215 431h193l70 -152l34 -97h11zM150 802h131v-124h-131v124zM350 802h131v-124h-131v124z" />
    <glyph glyph-name="Zacute" unicode="&#x179;" horiz-adv-x="540" 
d="M499 133v-133h-450v102l242 405h-252v133h462v-102l-244 -405h242zM472 826l-96 -130h-145l58 130h183z" />
    <glyph glyph-name="zacute" unicode="&#x17a;" horiz-adv-x="433" 
d="M200 330l-165 -250v-80h373l1 130h-161l165 250v80h-383v-130h170zM394 646l-96 -130h-145l58 130h183z" />
    <glyph glyph-name="Zdotaccent" unicode="&#x17b;" horiz-adv-x="540" 
d="M499 133v-133h-450v102l242 405h-252v133h462v-102l-244 -405h242zM181 794h118v-113h-118v113z" />
    <glyph glyph-name="zdotaccent" unicode="&#x17c;" horiz-adv-x="433" 
d="M200 330l-165 -250v-80h373l1 130h-161l165 250v80h-383v-130h170zM178 614h118v-113h-118v113z" />
    <glyph glyph-name="Zcaron" unicode="&#x17d;" horiz-adv-x="540" 
d="M499 133v-133h-450v102l242 405h-252v133h462v-102l-244 -405h242zM364 690h-170l-55 120l39 20l99 -53h5l99 53l38 -20z" />
    <glyph glyph-name="zcaron" unicode="&#x17e;" horiz-adv-x="433" 
d="M200 330l-165 -250v-80h373l1 130h-161l165 250v80h-383v-130h170zM316 510h-170l-55 120l39 20l99 -53h5l99 53l38 -20z" />
    <glyph glyph-name="uni0218" unicode="&#x218;" horiz-adv-x="529" 
d="M313.5 144q23.5 13 23.5 39q0 22 -15.5 35t-56.5 30l-85 35q-78 32 -119 75t-41 108q0 92 66 138t178 46q61 0 110.5 -9.5t104.5 -26.5v-147q-49 18 -106 27t-104 9q-77 0 -77 -42q0 -16 15 -28t48 -26l132 -54q59 -24 90.5 -65.5t31.5 -108.5q0 -57 -32 -100t-86 -66
t-119 -23q-148 0 -241 60l-1 142q41 -26 105.5 -43.5t116.5 -17.5q38 0 61.5 13zM158 -47h165q12 -52 12 -102q0 -103 -62 -199l-115 41q25 31 39 55t20 52h-59v153z" />
    <glyph glyph-name="uni0219" unicode="&#x219;" horiz-adv-x="449" 
d="M123 128q56 -12 104 -12t48 21q0 9 -6 14.5t-22 9.5l-72 17q-86 20 -120.5 60.5t-34.5 87.5q0 72 55.5 108t159.5 36q43 0 89 -6.5t84 -16.5v-141q-42 16 -91 27t-89 11q-20 0 -29 -5t-9 -16q0 -8 9 -15.5t35 -14.5l81 -21q59 -15 91.5 -49t32.5 -85q0 -64 -51.5 -106
t-151.5 -42q-132 0 -200 34v136q31 -20 87 -32zM120 -47h165q12 -52 12 -102q0 -103 -62 -199l-115 41q25 31 39 55t20 52h-59v153z" />
    <glyph glyph-name="uni021A" unicode="&#x21a;" horiz-adv-x="549" 
d="M511 640v-133h-154v-507h-174v507h-154v133h482zM181 -30h165q12 -52 12 -102q0 -103 -62 -199l-115 41q25 31 39 55t20 52h-59v153z" />
    <glyph glyph-name="uni021B" unicode="&#x21b;" horiz-adv-x="459" 
d="M15 423q60 31 92.5 64t63.5 89h107v-116h151v-120h-151v-159q0 -30 12.5 -41t41.5 -11q41 0 86 17v-121q-21 -13 -67 -24t-83 -11q-82 0 -121 40t-39 112v198h-93v83zM182 -47h165q12 -52 12 -102q0 -103 -62 -199l-115 41q25 31 39 55t20 52h-59v153z" />
    <glyph glyph-name="uni0237" unicode="&#x237;" horiz-adv-x="283" 
d="M240 460v-468q0 -70 -43.5 -116t-123.5 -46q-39 0 -63 8t-52 24v108q4 -1 14.5 -5.5t24 -6.5t29.5 -2q19 0 31.5 13t12.5 40v451h170z" />
    <glyph glyph-name="uni02C8" unicode="&#x2c8;" horiz-adv-x="278" 
d="M196 402h-114l-32 238h178z" />
    <glyph glyph-name="gravecomb" unicode="&#x300;" 
d="M-10 516h-145l-96 130h183z" />
    <glyph glyph-name="acutecomb" unicode="&#x301;" 
d="M-20 646l-96 -130h-145l58 130h183z" />
    <glyph glyph-name="uni0302" unicode="&#x302;" 
d="M-150.5 624.5q46.5 -15.5 86.5 -24.5l-17 -96q-23 0 -70.5 12.5t-70.5 27.5h-2q-23 -15 -70.5 -27.5t-70.5 -12.5l-17 96q40 9 86.5 24.5t71.5 29.5h2q25 -14 71.5 -29.5z" />
    <glyph glyph-name="tildecomb" unicode="&#x303;" 
d="M-128 618.5q21 -5.5 40 -5.5q33 0 68 20v-99q-38 -26 -89 -26q-23 0 -48 5q-10 2 -31 7.5t-38 5.5q-33 0 -68 -20v99q39 27 88 27q17 0 49 -6q8 -2 29 -7.5z" />
    <glyph glyph-name="uni0304" unicode="&#x304;" 
d="M-280 610h260v-100h-260v100z" />
    <glyph glyph-name="uni0306" unicode="&#x306;" 
d="M-72.5 534q-40.5 -38 -122.5 -38t-122.5 38t-42.5 106h116q1 -22 14 -34.5t35 -12.5t35 12.5t14 34.5h116q-2 -68 -42.5 -106z" />
    <glyph glyph-name="uni0307" unicode="&#x307;" 
d="M-149 614h118v-113h-118v113z" />
    <glyph glyph-name="uni0308" unicode="&#x308;" 
d="M-414 622h131v-124h-131v124zM-214 622h131v-124h-131v124z" />
    <glyph glyph-name="uni030A" unicode="&#x30a;" 
d="M-46.5 715q-33.5 30 -86.5 30t-86.5 -30t-33.5 -81q0 -52 35 -84.5t85 -32.5q51 0 85.5 33t34.5 84t-33.5 81zM-111 607.5q-9 -10.5 -22 -10.5t-22 10.5t-9 25.5t8 23.5t23 8.5t23 -8.5t8 -23.5t-9 -25.5z" />
    <glyph glyph-name="uni030B" unicode="&#x30b;" 
d="M-211 670l-64 -150h-97l8 150h153zM-20 670l-64 -150h-97l8 150h153z" />
    <glyph glyph-name="uni030C" unicode="&#x30c;" 
d="M-138 510h-170l-55 120l39 20l99 -53h5l99 53l38 -20z" />
    <glyph glyph-name="uni0312" unicode="&#x312;" 
d="M-133 660h145l-58 -130h-183z" />
    <glyph glyph-name="uni0326" unicode="&#x326;" 
d="M-182 -47h165q12 -52 12 -102q0 -103 -62 -199l-115 41q25 31 39 55t20 52h-59v153z" />
    <glyph glyph-name="uni0327" unicode="&#x327;" 
d="M-33 7l-50 -50q41 -7 58.5 -20t17.5 -32q0 -9 -3 -18q-4 -14 -23.5 -31t-54 -29t-81.5 -12q-35 0 -71 7v62q34 -8 54 -8q25 0 40.5 7.5t15.5 15.5q0 9 -18 17t-55 13l-4 13l59 65h115z" />
    <glyph glyph-name="uni0328" unicode="&#x328;" 
d="M-458.5 1q-46.5 -32 -46.5 -87q0 -42 38.5 -64t110.5 -22q45 0 94 7v96q-32 -9 -57 -9t-39.5 8.5t-14.5 23.5q0 14 25.5 25.5t86.5 20.5l-73 50q-78 -17 -124.5 -49z" />
    <glyph glyph-name="uni0335" unicode="&#x335;" 
d="M-380 383h310v-130h-310v130z" />
    <glyph glyph-name="uni0336" unicode="&#x336;" 
d="M-139 578l-40 -9h-340l-51 9h-125v-130h124l53 9h332l45 -9h136v130h-134z" />
    <glyph glyph-name="uni0337" unicode="&#x337;" 
d="M-309 430l285 101v-133l-285 -101v133z" />
    <glyph glyph-name="uni0338" unicode="&#x338;" 
d="M-71 441l-437 -463l-25 26l434 466l28 -25v-4z" />
    <glyph glyph-name="Wgrave" unicode="&#x1e80;" horiz-adv-x="876" 
d="M198 640l34 -241l25 -145h17l46 160l62 227h112l62 -227l46 -171h17l25 156l34 241h190l-151 -640h-185l-52 182l-34 137h-16l-34 -137l-52 -182h-185l-151 640h190zM490 696h-145l-96 130h183z" />
    <glyph glyph-name="wgrave" unicode="&#x1e81;" horiz-adv-x="844" 
d="M399 212l-73 -212h-195l-121 460h179l37 -219l7 -87h4l24 87l75 219h182l66 -219l23 -87h4l9 87l35 219h179l-120 -460h-206l-62 212l-21 92h-4zM481 516h-145l-96 130h183z" />
    <glyph glyph-name="Wacute" unicode="&#x1e82;" horiz-adv-x="876" 
d="M198 640l34 -241l25 -145h17l46 160l62 227h112l62 -227l46 -171h17l25 156l34 241h190l-151 -640h-185l-52 182l-34 137h-16l-34 -137l-52 -182h-185l-151 640h190zM594 826l-96 -130h-145l58 130h183z" />
    <glyph glyph-name="wacute" unicode="&#x1e83;" horiz-adv-x="844" 
d="M399 212l-73 -212h-195l-121 460h179l37 -219l7 -87h4l24 87l75 219h182l66 -219l23 -87h4l9 87l35 219h179l-120 -460h-206l-62 212l-21 92h-4zM585 646l-96 -130h-145l58 130h183z" />
    <glyph glyph-name="Wdieresis" unicode="&#x1e84;" horiz-adv-x="876" 
d="M198 640l34 -241l25 -145h17l46 160l62 227h112l62 -227l46 -171h17l25 156l34 241h190l-151 -640h-185l-52 182l-34 137h-16l-34 -137l-52 -182h-185l-151 640h190zM266 802h131v-124h-131v124zM466 802h131v-124h-131v124z" />
    <glyph glyph-name="wdieresis" unicode="&#x1e85;" horiz-adv-x="844" 
d="M399 212l-73 -212h-195l-121 460h179l37 -219l7 -87h4l24 87l75 219h182l66 -219l23 -87h4l9 87l35 219h179l-120 -460h-206l-62 212l-21 92h-4zM257 622h131v-124h-131v124zM457 622h131v-124h-131v124z" />
    <glyph glyph-name="uni1E9E" unicode="&#x1e9e;" horiz-adv-x="700" 
d="M626.5 62.5q-26.5 -37.5 -68 -57.5t-86.5 -20q-85 0 -170 47v125q19 -15 53.5 -27t56.5 -12q25 0 43 17t18 40q0 24 -12.5 40.5t-43 32t-90.5 36.5l126 193q-15 20 -46.5 32t-66.5 12q-52 0 -79.5 -19.5t-27.5 -69.5v-432h-175v440q0 100 77.5 155t218.5 55
q106 0 174.5 -37t114.5 -99l-130 -192q140 -57 140 -172q0 -50 -26.5 -87.5z" />
    <glyph glyph-name="Ygrave" unicode="&#x1ef2;" horiz-adv-x="623" 
d="M351 488l70 152h193l-215 -431v-209h-175v209l-215 431h193l70 -152l34 -97h11zM374 696h-145l-96 130h183z" />
    <glyph glyph-name="ygrave" unicode="&#x1ef3;" horiz-adv-x="522" 
d="M313 -44q-25 -60 -65.5 -88t-103.5 -28q-48 0 -103 22v123q23 -10 36 -12.5t34 -2.5q26 0 45 14t33 54l-189 422h166l63 -147l33 -87h4l81 234h175zM329 516h-145l-96 130h183z" />
    <glyph glyph-name="figuredash" unicode="&#x2012;" horiz-adv-x="749" 
d="M70 335h609v-110h-609v110z" />
    <glyph glyph-name="endash" unicode="&#x2013;" horiz-adv-x="591" 
d="M70 335h451v-110h-451v110z" />
    <glyph glyph-name="emdash" unicode="&#x2014;" horiz-adv-x="1073" 
d="M70 335h933v-110h-933v110z" />
    <glyph glyph-name="quoteleft" unicode="&#x2018;" horiz-adv-x="289" 
d="M74 336q-12 53 -12 102q0 103 62 199l115 -41q-25 -31 -39 -55t-20 -52h59v-153h-165z" />
    <glyph glyph-name="quoteright" unicode="&#x2019;" horiz-adv-x="289" 
d="M50 633h165q12 -52 12 -102q0 -103 -62 -199l-115 41q25 31 39 55t20 52h-59v153z" />
    <glyph glyph-name="quotesinglbase" unicode="&#x201a;" horiz-adv-x="308" 
d="M56 153h165q12 -52 12 -102q0 -103 -62 -199l-115 41q25 31 39 55t20 52h-59v153z" />
    <glyph glyph-name="quotedblleft" unicode="&#x201c;" horiz-adv-x="532" 
d="M197 428q14 -24 39 -55l-115 -41q-62 96 -62 199q0 50 12 102h165v-153h-59q6 -28 20 -52zM440 428q14 -24 39 -55l-115 -41q-62 96 -62 199q0 50 12 102h165v-153h-59q6 -28 20 -52z" />
    <glyph glyph-name="quotedblright" unicode="&#x201d;" horiz-adv-x="532" 
d="M89 553q-14 24 -39 55l115 41q62 -96 62 -199q0 -49 -12 -102h-165v153h59q-6 28 -20 52zM332 553q-14 24 -39 55l115 41q62 -96 62 -199q0 -49 -12 -102h-165v153h59q-6 28 -20 52z" />
    <glyph glyph-name="quotedblbase" unicode="&#x201e;" horiz-adv-x="550" 
d="M298 153h165q12 -52 12 -102q0 -103 -62 -199l-115 41q25 31 39 55t20 52h-59v153zM56 153h165q12 -52 12 -102q0 -103 -62 -199l-115 41q25 31 39 55t20 52h-59v153z" />
    <glyph glyph-name="bullet" unicode="&#x2022;" horiz-adv-x="476" 
d="M329 212.5q37 36.5 37 91.5q0 63 -35.5 95.5t-92.5 32.5t-92.5 -32.5t-35.5 -95.5q0 -55 37 -91.5t91 -36.5t91 36.5z" />
    <glyph glyph-name="ellipsis" unicode="&#x2026;" horiz-adv-x="804" 
d="M570 160h168v-160h-168v160zM66 160h168v-160h-168v160zM318 160h168v-160h-168v160z" />
    <glyph glyph-name="guilsinglleft" unicode="&#x2039;" horiz-adv-x="328" 
d="M288 135l-133 -53l-17 26q-81 124 -113 164v4q32 40 113 164l17 26l133 -53q-44 -60 -128 -131v-16q84 -71 128 -131z" />
    <glyph glyph-name="guilsinglright" unicode="&#x203a;" horiz-adv-x="373" 
d="M160 282q-84 71 -128 131l133 53l17 -26q81 -124 113 -164v-4q-32 -40 -113 -164l-17 -26l-133 53q44 60 128 131v16z" />
    <glyph glyph-name="Euro" unicode="&#x20ac;" horiz-adv-x="568" 
d="M309 492.5q-29 -19.5 -40 -64.5h212l-13 -77h-207v-32v-21h198l-15 -77h-170q16 -48 52 -70.5t93 -22.5q34 0 54 7.5t47 22.5l-1 -132q-25 -16 -68 -28.5t-97 -12.5q-57 0 -109 28t-91.5 81.5t-58.5 126.5h-65l19 77h32q-2 32 -2 51v2h-49l19 77h36q18 113 88 170t186 57
q44 0 93 -15t77 -35v-144q-39 28 -70 39.5t-63 11.5q-58 0 -87 -19.5z" />
    <glyph glyph-name="arrowleft" unicode="&#x2190;" horiz-adv-x="693" 
d="M653 208l-403 20q31 -25 57 -45q24 -19 45 -35.5t32 -25.5l-101 -107q-26 30 -175 174l-91 90v32q55 55 97 95q140 136 169 169l101 -107q-12 -11 -78 -62l-56 -44l403 20v-174z" />
    <glyph glyph-name="arrowright" unicode="&#x2192;" horiz-adv-x="693" 
d="M579 406q42 -40 97 -95v-32l-91 -90q-149 -144 -175 -174l-101 107q11 9 32 25.5t45 35.5q26 20 57 45l-403 -20v174l403 -20l-56 44q-66 51 -78 62l101 107q29 -33 169 -169z" />
    <glyph glyph-name="minus" unicode="&#x2212;" horiz-adv-x="621" 
d="M60 375h501v-130h-501v130z" />
    <glyph glyph-name="approxequal" unicode="&#x2248;" horiz-adv-x="584" 
d="M463 307q-29 -5 -68 -5q-23 0 -45 4.5t-57 13.5q-41 10 -63 14.5t-48 4.5q-53 0 -112 -27v124q26 15 54.5 21t71.5 6q31 0 57.5 -5t60.5 -15q54 -15 84 -15q37 0 64 5.5t52 19.5v-125q-22 -16 -51 -21zM463 97q-29 -5 -68 -5q-23 0 -45 4.5t-57 13.5q-41 10 -63 14.5
t-48 4.5q-53 0 -112 -27v124q26 15 54.5 21t71.5 6q31 0 57.5 -5t60.5 -15q54 -15 84 -15q37 0 64 5.5t52 19.5v-125q-22 -16 -51 -21z" />
    <glyph glyph-name="notequal" unicode="&#x2260;" horiz-adv-x="600" 
d="M535 356h-156l-37 -105h193v-130h-239l-29 -83h-131l29 83h-85v130h131l37 105h-168v130h214l28 81h131l-28 -81h110v-130z" />
    <glyph glyph-name="uni00A40301" horiz-adv-x="383" 
d="M335 154q0 -50 -25 -88.5t-65.5 -59.5t-85.5 -21q-77 0 -144 21v137q9 -3 30 -6t42 -3q74 0 74 66v440h174v-486zM410 826l-96 -130h-145l58 130h183z" />
    <glyph glyph-name="i.loclTRK" horiz-adv-x="270" 
d="M50 460v-460h170v460h-170zM80 614h118v-113h-118v113z" />
    <glyph glyph-name="uni006A0301" horiz-adv-x="283" 
d="M240 460v-468q0 -70 -43.5 -116t-123.5 -46q-39 0 -63 8t-52 24v108q4 -1 14.5 -5.5t24 -6.5t29.5 -2q19 0 31.5 13t12.5 40v451h170zM316 646l-96 -130h-145l58 130h183z" />
    <glyph glyph-name="a.ss01" horiz-adv-x="592" 
d="M552 460v-460h-150l-17 83q-21 -36 -63 -64.5t-96 -28.5q-96 0 -146 71.5t-50 179.5q0 118 48 173.5t123 55.5q60 0 107 -27.5t74 -75.5l20 93h150zM359 155q21 34 21 77q0 50 -22.5 79t-67.5 29q-41 0 -60.5 -26.5t-19.5 -71.5q0 -68 19.5 -94.5t57.5 -26.5q51 0 72 34z
" />
    <glyph glyph-name="aacute.ss01" horiz-adv-x="592" 
d="M552 460v-460h-150l-17 83q-21 -36 -63 -64.5t-96 -28.5q-96 0 -146 71.5t-50 179.5q0 118 48 173.5t123 55.5q60 0 107 -27.5t74 -75.5l20 93h150zM359 155q21 34 21 77q0 50 -22.5 79t-67.5 29q-41 0 -60.5 -26.5t-19.5 -71.5q0 -68 19.5 -94.5t57.5 -26.5q51 0 72 34z
M471 646l-96 -130h-145l58 130h183z" />
    <glyph glyph-name="abreve.ss01" horiz-adv-x="592" 
d="M552 460v-460h-150l-17 83q-21 -36 -63 -64.5t-96 -28.5q-96 0 -146 71.5t-50 179.5q0 118 48 173.5t123 55.5q60 0 107 -27.5t74 -75.5l20 93h150zM359 155q21 34 21 77q0 50 -22.5 79t-67.5 29q-41 0 -60.5 -26.5t-19.5 -71.5q0 -68 19.5 -94.5t57.5 -26.5q51 0 72 34z
M431.5 534q-40.5 -38 -122.5 -38t-122.5 38t-42.5 106h116q1 -22 14 -34.5t35 -12.5t35 12.5t14 34.5h116q-2 -68 -42.5 -106z" />
    <glyph glyph-name="acircumflex.ss01" horiz-adv-x="592" 
d="M552 460v-460h-150l-17 83q-21 -36 -63 -64.5t-96 -28.5q-96 0 -146 71.5t-50 179.5q0 118 48 173.5t123 55.5q60 0 107 -27.5t74 -75.5l20 93h150zM359 155q21 34 21 77q0 50 -22.5 79t-67.5 29q-41 0 -60.5 -26.5t-19.5 -71.5q0 -68 19.5 -94.5t57.5 -26.5q51 0 72 34z
M381.5 614.5q46.5 -15.5 86.5 -24.5l-17 -96q-23 0 -70.5 12.5t-70.5 27.5h-2q-23 -15 -70.5 -27.5t-70.5 -12.5l-17 96q40 9 86.5 24.5t71.5 29.5h2q25 -14 71.5 -29.5z" />
    <glyph glyph-name="adieresis.ss01" horiz-adv-x="592" 
d="M552 460v-460h-150l-17 83q-21 -36 -63 -64.5t-96 -28.5q-96 0 -146 71.5t-50 179.5q0 118 48 173.5t123 55.5q60 0 107 -27.5t74 -75.5l20 93h150zM359 155q21 34 21 77q0 50 -22.5 79t-67.5 29q-41 0 -60.5 -26.5t-19.5 -71.5q0 -68 19.5 -94.5t57.5 -26.5q51 0 72 34z
M143 622h131v-124h-131v124zM343 622h131v-124h-131v124z" />
    <glyph glyph-name="agrave.ss01" horiz-adv-x="592" 
d="M552 460v-460h-150l-17 83q-21 -36 -63 -64.5t-96 -28.5q-96 0 -146 71.5t-50 179.5q0 118 48 173.5t123 55.5q60 0 107 -27.5t74 -75.5l20 93h150zM359 155q21 34 21 77q0 50 -22.5 79t-67.5 29q-41 0 -60.5 -26.5t-19.5 -71.5q0 -68 19.5 -94.5t57.5 -26.5q51 0 72 34z
M367 516h-145l-96 130h183z" />
    <glyph glyph-name="amacron.ss01" horiz-adv-x="592" 
d="M552 460v-460h-150l-17 83q-21 -36 -63 -64.5t-96 -28.5q-96 0 -146 71.5t-50 179.5q0 118 48 173.5t123 55.5q60 0 107 -27.5t74 -75.5l20 93h150zM359 155q21 34 21 77q0 50 -22.5 79t-67.5 29q-41 0 -60.5 -26.5t-19.5 -71.5q0 -68 19.5 -94.5t57.5 -26.5q51 0 72 34z
M179 610h260v-100h-260v100z" />
    <glyph glyph-name="aogonek.ss01" horiz-adv-x="592" 
d="M552 460v-460h-1q-61 -9 -86.5 -20.5t-25.5 -25.5q0 -15 14.5 -23.5t39.5 -8.5q26 0 57 9v-96q-49 -7 -94 -7q-72 0 -110.5 22t-38.5 64q0 71 90 111l-12 58q-21 -36 -63 -64.5t-96 -28.5q-96 0 -146 71.5t-50 179.5q0 118 48 173.5t123 55.5q60 0 107 -27.5t74 -75.5
l20 93h150zM359 155q21 34 21 77q0 50 -22.5 79t-67.5 29q-41 0 -60.5 -26.5t-19.5 -71.5q0 -68 19.5 -94.5t57.5 -26.5q51 0 72 34z" />
    <glyph glyph-name="aring.ss01" horiz-adv-x="592" 
d="M552 460v-460h-150l-17 83q-21 -36 -63 -64.5t-96 -28.5q-96 0 -146 71.5t-50 179.5q0 118 48 173.5t123 55.5q60 0 107 -27.5t74 -75.5l20 93h150zM359 155q21 34 21 77q0 50 -22.5 79t-67.5 29q-41 0 -60.5 -26.5t-19.5 -71.5q0 -68 19.5 -94.5t57.5 -26.5q51 0 72 34z
M395.5 715q-33.5 30 -86.5 30t-86.5 -30t-33.5 -81q0 -52 35 -84.5t85 -32.5q51 0 85.5 33t34.5 84t-33.5 81zM331 607.5q-9 -10.5 -22 -10.5t-22 10.5t-9 25.5t8 23.5t23 8.5t23 -8.5t8 -23.5t-9 -25.5z" />
    <glyph glyph-name="atilde.ss01" horiz-adv-x="592" 
d="M552 460v-460h-150l-17 83q-21 -36 -63 -64.5t-96 -28.5q-96 0 -146 71.5t-50 179.5q0 118 48 173.5t123 55.5q60 0 107 -27.5t74 -75.5l20 93h150zM359 155q21 34 21 77q0 50 -22.5 79t-67.5 29q-41 0 -60.5 -26.5t-19.5 -71.5q0 -68 19.5 -94.5t57.5 -26.5q51 0 72 34z
M338 618.5q21 -5.5 40 -5.5q33 0 68 20v-99q-38 -26 -89 -26q-23 0 -48 5q-10 2 -31 7.5t-38 5.5q-33 0 -68 -20v99q39 27 88 27q17 0 49 -6q8 -2 29 -7.5z" />
    <glyph glyph-name="g.ss01" horiz-adv-x="592" 
d="M552 460v-405q0 -83 -34 -141t-94 -87t-135 -29q-98 0 -200 46l-2 119q74 -39 150 -39q64 0 104.5 32.5t40.5 96.5v21q-21 -35 -62.5 -62t-93.5 -27q-96 0 -146 72t-50 184q0 121 48 177.5t123 56.5q60 0 107.5 -28t74.5 -77l19 90h150zM359 152q21 36 21 80
q0 54 -22.5 83.5t-67.5 29.5q-41 0 -60.5 -27t-19.5 -76q0 -71 19.5 -98.5t57.5 -27.5q51 0 72 36z" />
    <glyph glyph-name="gbreve.ss01" horiz-adv-x="592" 
d="M552 460v-405q0 -83 -34 -141t-94 -87t-135 -29q-98 0 -200 46l-2 119q74 -39 150 -39q64 0 104.5 32.5t40.5 96.5v21q-21 -35 -62.5 -62t-93.5 -27q-96 0 -146 72t-50 184q0 121 48 177.5t123 56.5q60 0 107.5 -28t74.5 -77l19 90h150zM359 152q21 36 21 80
q0 54 -22.5 83.5t-67.5 29.5q-41 0 -60.5 -27t-19.5 -76q0 -71 19.5 -98.5t57.5 -27.5q51 0 72 36zM431.5 534q-40.5 -38 -122.5 -38t-122.5 38t-42.5 106h116q1 -22 14 -34.5t35 -12.5t35 12.5t14 34.5h116q-2 -68 -42.5 -106z" />
    <glyph glyph-name="gcircumflex.ss01" horiz-adv-x="592" 
d="M552 460v-405q0 -83 -34 -141t-94 -87t-135 -29q-98 0 -200 46l-2 119q74 -39 150 -39q64 0 104.5 32.5t40.5 96.5v21q-21 -35 -62.5 -62t-93.5 -27q-96 0 -146 72t-50 184q0 121 48 177.5t123 56.5q60 0 107.5 -28t74.5 -77l19 90h150zM359 152q21 36 21 80
q0 54 -22.5 83.5t-67.5 29.5q-41 0 -60.5 -27t-19.5 -76q0 -71 19.5 -98.5t57.5 -27.5q51 0 72 36zM381.5 614.5q46.5 -15.5 86.5 -24.5l-17 -96q-23 0 -70.5 12.5t-70.5 27.5h-2q-23 -15 -70.5 -27.5t-70.5 -12.5l-17 96q40 9 86.5 24.5t71.5 29.5h2q25 -14 71.5 -29.5z
" />
    <glyph glyph-name="uni0123.ss01" horiz-adv-x="592" 
d="M552 460v-405q0 -83 -34 -141t-94 -87t-135 -29q-98 0 -200 46l-2 119q74 -39 150 -39q64 0 104.5 32.5t40.5 96.5v21q-21 -35 -62.5 -62t-93.5 -27q-96 0 -146 72t-50 184q0 121 48 177.5t123 56.5q60 0 107.5 -28t74.5 -77l19 90h150zM359 152q21 36 21 80
q0 54 -22.5 83.5t-67.5 29.5q-41 0 -60.5 -27t-19.5 -76q0 -71 19.5 -98.5t57.5 -27.5q51 0 72 36zM286 660h145l-58 -130h-183z" />
    <glyph glyph-name="gdotaccent.ss01" horiz-adv-x="592" 
d="M552 460v-405q0 -83 -34 -141t-94 -87t-135 -29q-98 0 -200 46l-2 119q74 -39 150 -39q64 0 104.5 32.5t40.5 96.5v21q-21 -35 -62.5 -62t-93.5 -27q-96 0 -146 72t-50 184q0 121 48 177.5t123 56.5q60 0 107.5 -28t74.5 -77l19 90h150zM359 152q21 36 21 80
q0 54 -22.5 83.5t-67.5 29.5q-41 0 -60.5 -27t-19.5 -76q0 -71 19.5 -98.5t57.5 -27.5q51 0 72 36zM255 614h118v-113h-118v113z" />
    <glyph glyph-name="ampersand.alt" horiz-adv-x="676" 
d="M463 0l-40 45q-65 -55 -164 -55q-75 0 -127.5 26.5t-78.5 69.5t-26 92q0 101 129 170l-4 4q-31 36 -50 78.5t-19 77.5q0 69 51 108t148 39q103 0 156.5 -37.5t53.5 -106.5q0 -47 -35.5 -92.5t-103.5 -78.5l-14 -7l111 -117q20 41 20 90q0 29 -4 56h170q0 -62 -33 -122.5
t-78 -101.5l132 -138h-194zM250 514.5q-11 -8.5 -11 -26.5q0 -20 9 -40.5t32 -49.5l13 10q50 38 50 80q0 18 -12.5 26.5t-41.5 8.5q-28 0 -39 -8.5zM345 134l-115 129q-25 -22 -25 -56q0 -35 25 -57.5t70 -22.5q27 0 45 7z" />
    <glyph glyph-name="at.case" horiz-adv-x="945" 
d="M709 642.5q96 -42.5 146 -116.5t50 -168q0 -76 -28 -143.5t-79 -108.5t-117 -41q-63 0 -111 41.5t-59 104.5q-17 -48 -59.5 -84t-97.5 -36q-71 0 -104.5 49t-33.5 126q0 66 23 120.5t66 87t98 32.5q93 0 147 -106l43 90h135l-60 -295q-3 -15 -3 -26q0 -41 42 -41
q36 0 67.5 31.5t49.5 83t18 107.5q0 86 -48 147t-130 92.5t-184 31.5q-110 0 -195 -40t-133 -116t-48 -180q0 -99 41 -168t115.5 -104t174.5 -35q50 0 105.5 12.5t82.5 29.5v-66q-25 -16 -76 -28t-115 -12q-115 0 -204.5 46.5t-138.5 130t-49 190.5q0 116 54 208t154 144
t232 52q133 0 229 -42.5zM530 332q0 21 -13.5 32.5t-37.5 11.5q-48 0 -68 -22.5t-26 -63.5q-1 -5 -1 -14q0 -22 12 -36.5t35 -14.5q39 0 65.5 28t32.5 68q1 4 1 11z" />
    <glyph glyph-name="tildecomb.002" 
d="M-121.5 661q14.5 -5 31.5 -5q34 0 70 27v-119q-38 -28 -73 -28q-16 0 -30 4.5t-34 12.5q-21 10 -35.5 15t-31.5 5q-34 0 -70 -27v119q37 28 74 28q25 0 63 -17q21 -10 35.5 -15z" />
    <glyph glyph-name="dotelessi" horiz-adv-x="270" 
d="M220 460h-170v-460h170v460z" />
    <glyph glyph-name="icon" horiz-adv-x="745" 
d="M449.5 372.5q0.5 -3.5 2.5 -4.5q26 -11 36.5 -35t13.5 -58l1 -16q0 -53 -33 -126q-31 -66 -88 -105t-108 -39q-15 0 -30.5 3t-23.5 9q-4 2 -6 2q-5 0 -8 -5l-52 -71l-48 -44l-3 1l23 64l45 82q3 4 -2 9q-43 46 -43 119q0 60 29 121.5t75.5 101t95.5 39.5q29 0 58 -17
q-25 -19 -25 -40q0 -12 9 -32l2 -1l169 267l69 67l4 -3l-29 -92l-132 -190q-2 -3 -1.5 -6.5zM270 459l-21 -5l-43 101l54 9zM216 420l-19 -9l-100 125l51 25zM161 388l-14 -14l-92 56l35 38zM294 339q12 15 12 20q-1 10 -14 10q-18 -2 -41.5 -23.5t-43.5 -58.5
q-17 -31 -25.5 -64.5t-8.5 -60.5q0 -19 4 -32.5t12 -13.5q3 0 6 9.5t6 23.5q8 35 16.5 61.5t23.5 53.5q23 43 53 75z" />
    <glyph glyph-name="numerosign" horiz-adv-x="1099" 
d="M618.5 641q27.5 -9 38.5 -23v-111q-28 14 -45 14q-18 0 -25.5 -11.5t-7.5 -39.5v-470h-186l-187 355h-16l20 -146v-57q0 -44 -18 -81t-51 -59t-77 -22q-41 0 -68 9t-38 23v111q28 -14 45 -14q18 0 25 11t7 40v470h187l190 -355h16l-24 136v67q0 44 18 81t51 59t77 22
q41 0 68.5 -9zM769 217q-45 27 -69.5 71t-24.5 92q0 75 53 117.5t145 42.5q93 0 144.5 -41.5t51.5 -118.5q0 -49 -23.5 -92.5t-68 -70.5t-104.5 -27q-59 0 -104 27zM835 425.5q-13 -12.5 -13 -43.5q0 -40 14 -65.5t37 -25.5t36 25.5t13 65.5q0 31 -12 43.5t-37 12.5
t-38 -12.5zM694 133h356v-133h-356v133z" />
    <glyph glyph-name="tunera" horiz-adv-x="1096" 
d="M288 -111.5q-119 69.5 -188.5 188.5t-69.5 260t69.5 260t188.5 188.5t260 69.5t260 -69.5t188.5 -188.5t69.5 -260t-69.5 -260t-188.5 -188.5t-260 -69.5t-260 69.5zM277 536q10 -11 40.5 -17.5t89.5 -6.5q20 0 54 2q16 2 25 2l-3 -244q0 -24 20 -37t48 -13t48 13t20 37
l-3 244q7 0 25 -2q32 -2 53 -2q59 0 89.5 6.5t41 18t10.5 28.5q0 61 -60 73q-50 10 -224 10q-166 0 -225 -10t-59 -73q0 -18 10 -29zM291 340.5q17 -14.5 45 -14.5q29 0 43 14t14 44q0 28 -14.5 45t-42.5 17q-27 0 -44.5 -18t-17.5 -44q0 -29 17 -43.5zM759 326
q30 0 46.5 14.5t16.5 43.5q0 27 -17.5 44.5t-45.5 17.5q-27 0 -42 -17.5t-15 -44.5q0 -58 57 -58zM316 93q40 -52 104 -81t131 -29q68 0 131.5 29.5t102.5 81t39 115.5q0 27 -14 42t-35 15q-19 0 -37.5 -12t-28.5 -35q-16 -36 -51.5 -70t-106.5 -34t-105 33t-53 71
q-11 23 -29.5 35t-37.5 12q-21 0 -35.5 -15t-14.5 -42q0 -64 40 -116z" />
    <glyph glyph-name="arin.ss01" horiz-adv-x="600" 
 />
    </font>
</defs>
</svg>
